<svg width="40" height="40" viewBox="0 0 40 40" fill="none" xmlns="http://www.w3.org/2000/svg">
<mask id="mask0_59_2308" style="mask-type:luminance" maskUnits="userSpaceOnUse" x="2" y="2" width="36" height="36">
<path d="M36.6667 23.3335H23.3333V36.6668H36.6667V23.3335ZM10.8333 3.3335L18.3333 16.6668H3.33334L10.8333 3.3335ZM30 16.6668C31.7681 16.6668 33.4638 15.9645 34.7141 14.7142C35.9643 13.464 36.6667 11.7683 36.6667 10.0002C36.6667 8.23205 35.9643 6.53636 34.7141 5.28612C33.4638 4.03588 31.7681 3.3335 30 3.3335C28.2319 3.3335 26.5362 4.03588 25.286 5.28612C24.0357 6.53636 23.3333 8.23205 23.3333 10.0002C23.3333 11.7683 24.0357 13.464 25.286 14.7142C26.5362 15.9645 28.2319 16.6668 30 16.6668Z" fill="white" stroke="white" stroke-width="1.5" stroke-linejoin="round"/>
<path d="M3.33334 23.3335L16.6667 36.6668M16.6667 23.3335L3.33334 36.6668" stroke="white" stroke-width="1.5" stroke-linecap="round" stroke-linejoin="round"/>
</mask>
<g mask="url(#mask0_59_2308)">
<path d="M0 0H40V40H0V0Z" fill="url(#paint0_linear_59_2308)"/>
</g>
<defs>
<linearGradient id="paint0_linear_59_2308" x1="2.53542e-07" y1="40" x2="40.509" y2="37.7065" gradientUnits="userSpaceOnUse">
<stop stop-color="#FFDE00"/>
<stop offset="1" stop-color="#43F272"/>
</linearGradient>
</defs>
</svg>
