<svg width="300" height="308" viewBox="0 0 300 308" fill="none" xmlns="http://www.w3.org/2000/svg">
<path d="M278.823 231.791C280.137 229.514 281.303 227.213 282.543 224.861C285.006 220.258 287.229 215.539 289.213 210.704C290.198 208.936 290.925 207.035 291.37 205.061L291.742 204.096C294.683 195.647 296.85 186.948 298.215 178.108C298.215 177.663 298.363 177.217 298.413 176.747C299.475 169.461 300.006 162.107 300 154.744C300 152.269 300 149.794 299.802 147.146V146.923C299.811 146.236 299.769 145.55 299.678 144.869C299.078 135.143 297.55 125.496 295.115 116.06C294.987 115.439 294.822 114.828 294.619 114.228C292.297 105.594 289.201 97.1867 285.369 89.1067L284.824 88.0176C284.348 86.6965 283.706 85.4408 282.915 84.2804C279.097 76.9796 274.702 69.9944 269.772 63.3912C268.628 61.1355 267.063 59.1192 265.16 57.4512C263.82 55.8177 262.432 54.2089 261.018 52.6497C257.572 48.7399 253.931 45.0061 250.107 41.4626C248.602 39.5163 246.774 37.842 244.702 36.5125V36.661C239.076 31.9455 233.126 27.6284 226.897 23.7415C224.951 22.1947 222.818 20.8975 220.549 19.8804C218.565 18.7667 216.556 17.7272 214.548 16.7124L212.886 15.8709H212.663C205.728 12.5238 198.539 9.72661 191.164 7.50535C188.238 6.61434 185.287 5.79759 182.311 5.03033C173.929 2.93196 165.371 1.61455 156.745 1.09506C154.118 0.51172 151.447 0.147462 148.76 0.00604882C148.12 -0.0213144 147.481 0.0710246 146.876 0.2783C146.702 0.34783 146.542 0.448483 146.404 0.575302C146.254 0.453221 146.087 0.353209 145.908 0.2783C145.304 0.0668996 144.664 -0.0255547 144.024 0.00604882C140.23 0.00604882 132.642 1.88706 124.31 3.37207C109.138 5.72167 94.3027 9.87628 80.1207 15.7472V16.0442L79.9719 15.7472C71.7393 19.7592 63.9304 24.5848 56.6623 30.1518L55.6704 30.721C48.4271 36.346 41.7348 42.6443 35.6836 49.5311C35.4108 49.7539 35.1133 49.9519 34.8157 50.1499L34.9645 50.3479C28.8066 57.4987 23.3509 65.2232 18.6725 73.415L18.3997 73.6378C13.5837 82.2028 9.69344 91.2544 6.79453 100.64C3.87923 109.949 1.90215 119.526 0.892712 129.227C0.297324 134.809 -0.000666638 140.418 1.11976e-06 146.032C1.11976e-06 150.363 0.1736 154.695 0.520765 159.001C2.13917 179.293 7.3795 199.133 15.9944 217.585C33.0303 253.893 62.3161 283.42 95.9663 298.048C103.782 301.463 111.936 304.051 120.293 305.77H120.541C123.739 306.413 126.938 306.933 130.112 307.304C131.923 307.502 133.758 307.675 135.593 307.799H136.411C137.537 307.949 138.672 308.015 139.808 307.997H144.941H145.313H145.71H145.859H146.702H146.9C146.9 307.997 147.049 307.997 147.148 307.849C147.578 307.873 148.008 307.873 148.438 307.849H150.124H151.909C164.543 307.057 177.059 304.95 189.254 301.562C197.007 299.725 204.503 296.94 211.572 293.271C217.473 290.516 223.188 287.383 228.682 283.89C231.608 282.266 234.373 280.369 236.94 278.223C241.489 274.874 245.851 271.28 250.008 267.456C254.853 264.453 258.881 260.305 261.737 255.378C266.625 249.794 271.076 243.845 275.054 237.583C276.585 235.845 277.855 233.894 278.823 231.791ZM249.636 267.209L248.545 267.951C253.035 263.924 257.298 259.652 261.316 255.156C257.65 259.387 253.751 263.411 249.636 267.209ZM236.518 278.099L233.121 280.574C234.783 279.336 236.419 278.099 238.081 276.762C237.56 277.109 237.064 277.554 236.518 278.099ZM189.23 301.265L187.047 301.859C191.542 300.178 195.909 298.176 200.116 295.87C202.943 294.995 205.77 294.055 208.596 293.048C202.411 296.365 195.937 299.115 189.254 301.265H189.23ZM12.2004 150.512C16.9934 147.363 21.9608 144.488 27.0788 141.899C27.4939 151.866 28.6209 161.792 30.4513 171.599C25.5718 174.082 20.8438 176.85 16.292 179.89C14.1346 170.224 12.7662 160.399 12.2004 150.512ZM15.6224 180.361C12.2386 182.659 9.10526 185.305 6.27376 188.256C3.78374 178.765 2.12434 169.076 1.31426 159.298C4.42176 156.2 7.82717 153.415 11.4812 150.982C12.0602 160.871 13.4452 170.696 15.6224 180.361ZM11.9028 140.76C11.9084 134.027 12.3142 127.299 13.1179 120.614C17.9896 117.497 23.0222 114.639 28.1948 112.05C27.2989 119.383 26.8517 126.764 26.8557 134.152C26.8557 136.454 26.8557 138.78 27.0045 141.082C21.8912 143.662 16.9242 146.521 12.126 149.646C12.002 146.7 11.9028 143.755 11.9028 140.785V140.76ZM19.342 74.1081C22.7183 71.3876 26.2813 68.9065 30.005 66.683C25.4404 74.6309 21.7013 83.0236 18.8461 91.7302C15.0543 94.054 11.4554 96.6777 8.08401 99.576C10.923 90.7446 14.6448 82.2206 19.1933 74.1328L19.342 74.1081ZM214.3 17.6282L215.54 18.2469C219.309 20.2022 222.979 22.3307 226.624 24.6077C227.451 25.3054 228.148 26.1433 228.682 27.0827C221.635 22.1137 214.167 17.7661 206.365 14.0889L209.117 15.1779L213.134 17.0589L214.3 17.6282ZM294.371 123.089C294.276 123.512 294.144 123.926 293.974 124.326C291.901 114.88 288.945 105.65 285.146 96.7544C285.508 95.7421 285.725 94.6839 285.791 93.6112C289.631 103.126 292.473 113.013 294.272 123.113L294.371 123.089ZM294.52 116.307C294.747 117.34 294.864 118.393 294.867 119.45C294.864 120.038 294.822 120.625 294.743 121.208C294.073 117.767 293.28 114.327 292.387 110.912C293.066 112.038 293.623 113.232 294.049 114.476C294.098 115.119 294.272 115.738 294.445 116.332L294.52 116.307ZM296.999 138.83C298.043 140.732 298.716 142.815 298.983 144.968C298.983 145.686 298.983 146.428 299.107 147.146C299.082 149.476 298.575 151.776 297.619 153.903C297.619 152.739 297.619 151.626 297.471 150.462C297.471 146.601 297.297 142.716 296.925 138.854L296.999 138.83ZM297.719 176.623L297.495 178.009C297.172 179.65 296.63 181.24 295.884 182.737C296.528 178.579 296.999 174.42 297.297 170.213C297.664 171.619 297.848 173.066 297.843 174.519C297.839 175.222 297.798 175.925 297.719 176.623ZM291.693 198.898C291.545 197.638 291.246 196.399 290.8 195.211C291.47 193.033 292.065 190.855 292.635 188.677C293.329 187.86 293.974 187.043 294.569 186.202C293.809 190.525 292.85 194.757 291.693 198.898ZM267.218 244.389C270.974 238.65 274.29 232.635 277.137 226.396C277.781 225.307 278.377 224.193 278.972 223.079C279.141 223.894 279.232 224.723 279.244 225.554C279.233 227.136 278.974 228.706 278.476 230.207C276.624 233.359 274.649 236.428 272.549 239.414C270.883 241.243 269.085 242.947 267.168 244.513L267.218 244.389ZM27.5748 134.177C27.5749 126.656 28.0387 119.143 28.9635 111.679C34.8901 108.709 41.1886 105.863 47.7848 103.09C46.9484 110.486 46.5345 117.923 46.5449 125.366C46.5449 127.519 46.5449 129.697 46.5449 131.875C39.8744 134.721 33.5262 137.642 27.5996 140.661C27.6244 138.557 27.5748 136.379 27.5748 134.177ZM124.806 16.5639C122.976 21.3631 121.654 26.3402 120.863 31.414C114.945 33.196 108.878 35.0605 102.662 37.0075C104.528 31.2915 107.067 25.8165 110.225 20.6972C115.217 19.2452 120.078 17.8674 124.806 16.5639ZM149.603 9.65861C150.868 13.0741 152.257 17.0837 153.72 21.3654C149.058 22.8505 144.173 24.3107 139.139 25.8452C139.139 23.593 138.965 21.4397 138.965 19.3854C138.965 17.3312 138.965 14.7324 139.238 12.6039C142.908 11.5891 146.38 10.5991 149.578 9.65861H149.603ZM284.328 96.8287C283.227 99.4943 281.608 101.917 279.567 103.957C276.087 94.7254 271.841 85.8008 266.871 77.2761C268.473 75.546 269.705 73.508 270.491 71.2865C275.843 79.3757 280.466 87.9234 284.303 96.8287H284.328ZM293.429 125.514C291.981 128.386 290.052 130.989 287.725 133.211C285.936 123.498 283.306 113.959 279.864 104.699C281.886 102.693 283.525 100.337 284.7 97.7445C288.467 106.708 291.381 116.006 293.404 125.514H293.429ZM290.081 195.186C287.512 203.443 284.261 211.473 280.36 219.194C283.618 210.933 286.108 202.391 287.8 193.676C289.171 192.483 290.479 191.219 291.718 189.889C291.147 191.671 290.627 193.429 290.081 195.186ZM261.142 248.819C258.985 250.205 256.704 251.567 254.273 252.903C259.22 245.715 263.424 238.044 266.821 230.009C270.794 227.793 274.613 225.312 278.253 222.584C277.732 223.847 277.161 225.059 276.591 226.322C272.076 234.236 266.908 241.761 261.142 248.819ZM240.759 273.421L238.899 275.005C232.432 279.98 225.583 284.44 218.416 288.345L219.036 287.603C223.779 284.453 228.31 280.997 232.6 277.257L233.171 276.812L234.807 276.094C236.94 275.129 238.998 274.139 240.957 273.124L240.759 273.421ZM220.524 285.524C221.665 284.831 222.83 284.088 223.946 283.346C222.731 284.262 221.466 285.153 220.202 286.019L220.524 285.524ZM164.234 304.087L156.795 305.547C159.167 303.805 161.11 301.545 162.473 298.939L174.649 295.746C171.733 299.135 168.199 301.941 164.234 304.012V304.087ZM145.784 307.477C144.632 306.539 143.694 305.366 143.032 304.037C145.214 303.418 147.743 302.75 150.471 302.032C150.159 303.455 149.435 304.755 148.388 305.77C147.973 306.183 147.535 306.571 147.074 306.933L146.628 307.329L145.784 307.477ZM118.507 302.354C119.24 301.646 120.076 301.054 120.987 300.597C123.358 302.182 125.845 303.589 128.426 304.804L125.822 304.285L120.541 303.22L118.507 302.354ZM47.264 125.465C47.2457 117.881 47.668 110.303 48.5287 102.769C55.4389 99.8812 62.6633 97.0515 70.2017 94.2794C69.6892 100.417 69.433 106.646 69.433 112.966C69.433 116.233 69.433 119.525 69.6313 122.866C61.8697 125.786 54.4305 128.707 47.3136 131.702C47.3136 129.598 47.264 127.519 47.264 125.465ZM203.736 15.0294C199.607 12.8354 195.36 10.8689 191.015 9.13886C193.024 9.68336 195.057 10.2774 197.041 10.8961C198.281 11.3664 199.521 11.8614 200.711 12.3811C201.85 13.1027 202.871 13.996 203.736 15.0294ZM248.793 52.8724C247.025 55.015 244.963 56.8981 242.668 58.4659C237.355 50.9557 231.451 43.8796 225.012 37.3046C226.575 36.0821 227.895 34.5797 228.906 32.8743C236.1 38.9562 242.753 45.6471 248.793 52.8724ZM229.178 32.2803C229.636 31.3635 229.89 30.3588 229.922 29.335C229.922 29.1865 229.922 29.038 229.922 28.8895C237.567 34.436 244.719 40.63 251.298 47.4026C251.088 49.2076 250.384 50.9202 249.264 52.3527C243.162 45.0878 236.442 38.3636 229.178 32.2555V32.2803ZM289.783 163.877C286.248 167 282.457 169.824 278.451 172.317C278.451 171.327 278.451 170.337 278.451 169.371C278.439 160.492 277.784 151.625 276.492 142.839C280.297 140.446 283.882 137.721 287.204 134.696C288.869 144.301 289.699 154.031 289.684 163.778L289.783 163.877ZM267.168 228.92C270.627 220.408 273.284 211.591 275.103 202.586C279.164 200.147 283.043 197.417 286.709 194.419C284.969 203.572 282.336 212.533 278.848 221.174C275.143 224.028 271.24 226.617 267.168 228.92ZM162.746 298.023C164.592 294.133 165.933 290.025 166.738 285.796C172.045 284.237 177.525 282.628 183.179 280.846C181.19 285.79 178.528 290.437 175.269 294.657L162.746 298.023ZM151.265 300.993C151.413 299.508 151.488 297.924 151.488 296.216C151.488 294.508 151.488 292.405 151.265 290.301L165.97 286.019C165.155 290.312 163.762 294.474 161.828 298.394L151.265 300.993ZM70.0529 112.892C70.0529 106.481 70.3257 100.145 70.8464 93.9329C78.6328 91.0372 86.4936 88.2651 94.3544 85.5921C94.3544 87.9186 94.3544 90.2452 94.3544 92.6212C94.3544 99.477 94.6024 106.481 95.0488 113.634C86.7829 116.505 78.5171 119.459 70.2513 122.495C70.2265 119.351 70.1521 116.159 70.1521 112.966L70.0529 112.892ZM75.0124 67.2028C82.2037 64.604 89.3949 62.2527 96.5118 59.7777C95.3336 68.0796 94.6382 76.4427 94.4288 84.8249C86.5928 87.4979 78.7651 90.2699 70.9456 93.1409C71.7068 84.4338 73.0824 75.791 75.062 67.277L75.0124 67.2028ZM118.879 52.5507C118.879 55.0257 118.755 57.7482 118.755 60.4212C118.755 65.6682 118.904 71.0638 119.202 76.6078C111.217 79.2148 103.199 81.8714 95.148 84.5774C95.361 76.1935 96.0731 67.8297 97.2806 59.5302C104.596 57.1789 111.812 54.8772 118.929 52.6249L118.879 52.5507ZM140.23 45.8434C141.106 53.1199 142.164 60.7677 143.404 68.7868L119.896 76.3851C119.631 70.907 119.491 65.5857 119.474 60.4212C119.474 57.6739 119.474 54.9762 119.474 52.3279C126.641 50.1746 133.534 48.0461 140.279 45.9176L140.23 45.8434ZM183.005 7.95085C181.493 7.30735 179.955 6.68859 178.443 6.14409H178.815L182.46 6.9361C182.754 7.2011 182.947 7.55976 183.005 7.95085ZM223.872 37.2303C221.364 39.0908 218.711 40.7461 215.937 42.1803C210.902 35.7991 205.372 29.8241 199.397 24.3107C201.193 23.3149 202.858 22.1011 204.356 20.6972C211.325 25.6384 217.854 31.1699 223.872 37.2303ZM242.073 58.8619C238.708 61.1734 235.187 63.2491 231.534 65.0742C227.015 57.3085 221.961 49.8655 216.408 42.7991C219.201 41.3712 221.872 39.7155 224.392 37.8491C230.834 44.3749 236.746 51.4013 242.073 58.8619ZM257.249 84.3299C253.177 87.023 248.936 89.4534 244.553 91.6064C240.885 82.6958 236.627 74.0389 231.807 65.693C235.476 63.8444 239.021 61.761 242.42 59.456C247.986 67.3612 252.943 75.6763 257.249 84.3299ZM268.73 112.57C264.104 115.548 259.31 118.258 254.373 120.688C251.797 111.027 248.616 101.538 244.85 92.2747C249.253 90.0581 253.518 87.5786 257.621 84.8496C262.034 93.7996 265.772 103.065 268.805 112.57H268.73ZM275.674 142.468C270.702 145.588 265.57 148.447 260.299 151.032C259.066 141.014 257.152 131.091 254.571 121.331C259.51 118.899 264.312 116.197 268.954 113.238C271.992 122.786 274.264 132.56 275.748 142.468H275.674ZM250.876 237.41C254.195 229.001 256.752 220.312 258.514 211.447C264.118 208.749 269.375 205.977 274.26 203.081C272.393 212.129 269.669 220.98 266.127 229.514C261.44 232.286 256.332 234.91 251 237.41H250.876ZM231.906 245.478C234.86 237.237 237.1 228.758 238.601 220.134C245.297 217.436 251.694 214.689 257.695 211.843C255.915 220.725 253.317 229.425 249.934 237.83C244.247 240.503 238.279 243.053 232.03 245.478H231.906ZM211.225 253.027C213.503 245.031 215.161 236.873 216.184 228.623C223.624 225.975 230.716 223.277 237.684 220.456C236.248 229.119 234.057 237.641 231.137 245.924C224.74 248.399 218.119 250.701 211.349 253.027H211.225ZM189.874 260.13C191.34 252.42 192.309 244.625 192.776 236.791C200.537 234.316 208.2 231.593 215.689 228.896C214.606 237.157 212.889 245.324 210.555 253.324C203.811 255.626 196.942 257.878 189.998 260.13H189.874ZM95.0736 92.6954C95.0736 90.2204 95.0736 87.7454 95.0736 85.4189C103.133 82.6716 111.167 80.0233 119.177 77.3998C119.623 86.2109 120.392 95.3437 121.409 104.798C112.804 107.645 104.199 110.516 95.6687 113.461C95.3215 106.407 95.0736 99.4522 95.0736 92.6954ZM176.137 34.1613C179.509 40.4973 182.782 47.3531 186.056 54.6544C180.005 56.8324 173.582 59.0434 166.788 61.2875C164.655 53.6397 162.498 46.4374 160.415 39.5321C165.92 37.7006 171.227 35.9185 176.137 34.1613ZM163.167 4.73333C163.536 4.46302 163.792 4.06648 163.887 3.61957C169.746 5.36912 175.355 7.86468 180.575 11.0446C178.994 12.0062 177.335 12.8341 175.616 13.5196C171.835 10.1022 167.656 7.15211 163.167 4.73333ZM168.127 4.13933L172.591 4.95608C176.082 6.00178 179.51 7.24966 182.857 8.69336C182.47 9.45829 181.877 10.1009 181.146 10.5496C176.751 7.89949 172.099 5.70193 167.259 3.99083L168.127 4.13933ZM181.245 11.4159C187.286 15.1137 192.958 19.3821 198.181 24.1622C195.702 25.5235 192.8 26.86 189.502 28.2707C185.498 23.1788 181.077 18.427 176.285 14.0641C178.014 13.3141 179.681 12.4286 181.27 11.4159H181.245ZM261.167 181.771C255.067 184.741 248.496 187.637 241.528 190.533C241.528 188.998 241.528 187.464 241.528 185.905C241.505 177.545 241.042 169.193 240.139 160.882C247.107 157.986 253.653 155.091 259.704 152.121C260.671 160.178 261.159 168.285 261.167 176.4C261.266 178.207 261.242 179.989 261.192 181.771H261.167ZM168.97 266.739C169.144 263.422 169.218 260.007 169.218 256.517C169.218 252.631 169.218 248.646 168.945 244.562C176.533 242.087 184.245 239.612 192.007 237.137C191.573 244.969 190.637 252.765 189.205 260.477C182.361 262.581 175.616 264.684 168.995 266.739H168.97ZM149.405 272.802C148.479 266.202 147.396 259.223 146.156 251.864L168.251 244.785C168.4 248.795 168.499 252.705 168.499 256.517C168.499 260.328 168.499 263.571 168.251 266.961L149.405 272.802ZM147.967 96.8782C149.578 106.432 151.265 116.134 152.926 125.96L125.996 134.845C124.558 124.945 123.31 115.094 122.252 105.293L147.967 96.8782ZM215.193 72.4498C209.291 74.9248 202.992 77.3998 196.371 79.7016C193.346 71.006 190.18 62.756 186.874 54.9514C192.552 52.8972 197.909 50.8676 202.868 48.8134C207.414 56.4609 211.537 64.3516 215.217 72.4498H215.193ZM240.808 190.83C233.543 193.825 225.93 196.72 218.243 199.567C218.243 189.914 217.714 180.08 216.656 170.064C224.574 167.144 232.204 164.182 239.544 161.179C240.419 169.401 240.866 177.662 240.883 185.929C240.908 187.563 240.883 189.196 240.833 190.83H240.808ZM192.453 221.644C192.453 226.594 192.321 231.47 192.057 236.271C184.295 238.87 176.558 241.37 168.945 243.82C168.573 235.553 167.904 226.866 167.011 217.832C175.277 215.11 183.683 212.321 192.23 209.467C192.379 213.575 192.453 217.659 192.453 221.644ZM195.95 80.5678C199.058 89.5274 201.893 98.7675 204.455 108.288C196.735 111.093 188.717 113.906 180.402 116.728C178.352 107.042 176.161 97.5547 173.83 88.2651C181.501 85.7076 188.874 83.1584 195.95 80.6173V80.5678ZM186.353 148.21C195.007 145.24 203.414 142.295 211.498 139.325C213.382 149.448 214.895 159.57 215.912 169.545C207.646 172.564 199.206 175.551 190.593 178.504C189.478 168.555 188.039 158.432 186.353 148.26V148.21ZM186.353 147.492C184.667 137.32 182.733 127.296 180.674 117.446C189.006 114.599 197.066 111.803 204.753 108.981C207.233 118.634 209.588 128.534 211.498 138.681C203.331 141.635 194.908 144.588 186.229 147.542L186.353 147.492ZM185.684 147.74C176.756 150.784 167.805 153.779 158.902 156.724C157.249 146.494 155.596 136.388 153.943 126.405C162.705 123.534 171.408 120.622 180.055 117.668C181.939 127.568 183.849 137.617 185.56 147.789L185.684 147.74ZM185.684 148.458C187.395 158.605 188.808 168.728 189.924 178.752C181.046 181.771 172.194 184.741 163.44 187.612C162.076 177.712 160.539 167.614 158.927 157.442C167.805 154.521 176.757 151.551 185.659 148.507L185.684 148.458ZM189.998 179.47C191.089 189.37 191.833 199.105 192.23 208.675C183.716 211.546 175.302 214.334 166.986 217.04C166.011 207.668 164.854 198.106 163.515 188.355C172.276 185.484 181.096 182.539 189.974 179.519L189.998 179.47ZM192.924 208.427C192.552 198.849 191.784 189.097 190.693 179.247C199.372 176.277 207.811 173.29 216.011 170.287C217.031 180.055 217.553 189.869 217.573 199.69V199.814C209.555 202.768 201.331 205.655 192.9 208.477L192.924 208.427ZM216.631 169.272C215.589 159.372 214.151 149.2 212.217 139.077C219.979 136.206 227.467 133.31 234.535 130.365C236.744 140.273 238.4 150.296 239.494 160.387C232.154 163.44 224.525 166.418 216.606 169.322L216.631 169.272ZM212.068 138.359C210.159 128.286 207.902 118.386 205.323 108.659C212.762 105.962 219.706 103.264 226.376 100.492C229.551 110.052 232.241 119.767 234.435 129.598C227.294 132.642 219.805 135.538 212.043 138.409L212.068 138.359ZM205.174 108.09C202.629 98.586 199.793 89.3459 196.669 80.3698C203.315 77.8948 209.638 75.4198 215.565 73.0933C219.527 81.8455 223.044 90.7917 226.103 99.8977C219.483 102.694 212.44 105.392 205.174 108.09ZM195.776 79.9491C188.783 82.4241 181.394 85.0229 173.706 87.6216C171.475 78.6621 169.21 70.115 166.912 61.9805C173.706 59.7035 180.179 57.5007 186.279 55.2979C189.552 63.0365 192.701 71.2535 195.727 79.9491H195.776ZM173.21 88.5374C175.517 97.8187 177.724 107.348 179.757 117.025C171.127 119.97 162.399 122.866 153.695 125.737C152.009 115.837 150.347 106.184 148.735 96.6554C156.935 93.9659 165.077 91.2599 173.161 88.5374H173.21ZM153.1 126.677C154.753 136.676 156.406 146.783 158.059 156.996C148.959 160.016 139.858 162.986 130.782 165.981C129.071 155.784 127.434 145.636 125.996 135.563L153.1 126.677ZM158.233 157.714C159.845 167.886 161.382 177.984 162.746 187.909L136.287 196.597C134.526 186.82 132.741 176.796 131.055 166.698C140.007 163.704 149.082 160.734 158.208 157.714H158.233ZM162.845 188.627C164.159 198.354 165.325 207.932 166.267 217.313L141.47 225.381L136.361 197.314L162.845 188.627ZM166.342 218.055C167.234 227.114 167.904 235.776 168.251 244.043L146.082 251.146C144.743 243.226 143.255 234.86 141.643 226.099L166.342 218.055ZM192.949 209.219C201.331 206.373 209.564 203.502 217.573 200.581C217.56 209.783 216.972 218.975 215.813 228.104C208.258 230.81 200.579 233.45 192.776 236.024C193.048 231.346 193.172 226.569 193.172 221.644C193.172 217.585 193.073 213.427 192.924 209.219H192.949ZM218.292 200.309C226.029 197.488 233.551 194.584 240.858 191.597C240.629 200.999 239.709 210.372 238.105 219.639C231.113 222.461 223.921 225.183 216.581 227.831C217.716 218.701 218.279 209.509 218.267 200.309H218.292ZM241.577 191.3C248.496 188.429 255.067 185.558 261.192 182.588C260.894 192.12 259.832 201.613 258.018 210.976C252.017 213.823 245.619 216.595 238.899 219.317C240.458 210.054 241.345 200.691 241.552 191.3H241.577ZM240.188 160.14C239.092 150.057 237.436 140.042 235.229 130.142C241.949 127.346 248.223 124.549 253.976 121.703C256.546 131.463 258.452 141.386 259.679 151.403C253.678 154.348 247.132 157.244 240.164 160.14H240.188ZM235.105 129.425C232.925 119.596 230.227 109.888 227.021 100.343C233.27 97.8682 239.048 95.1952 244.379 92.5964C248.154 101.859 251.342 111.349 253.926 121.01C248.074 123.831 241.8 126.628 235.08 129.425H235.105ZM226.798 99.7245C223.727 90.5964 220.184 81.6331 216.184 72.8706C221.714 70.5935 226.773 68.3413 231.286 66.0642C236.098 74.4192 240.348 83.0844 244.007 92.0024C238.775 94.5269 232.997 97.101 226.773 99.675L226.798 99.7245ZM215.887 72.1775C212.176 64.1255 208.037 56.2767 203.488 48.6649C208.001 46.7839 212.093 44.9276 215.689 43.0713C221.256 50.1325 226.319 57.576 230.84 65.3465C226.401 67.7225 221.367 69.9005 215.887 72.1775ZM203.191 48.0461C199.193 41.3736 194.779 34.9589 189.974 28.84C192.971 27.6084 195.901 26.2204 198.752 24.682C204.729 30.1839 210.267 36.1419 215.317 42.5021C211.746 44.3583 207.654 46.1651 203.191 48.0461ZM189.304 29.137C194.115 35.2431 198.529 41.65 202.521 48.3184C197.562 50.3479 192.255 52.3774 186.601 54.4069C183.46 47.0974 180.195 40.2663 176.806 33.9138C181.294 32.305 185.485 30.721 189.304 29.137ZM172.938 87.8444C164.887 90.5669 156.745 93.2647 148.512 95.9377C146.95 86.7059 145.487 77.8206 144.197 69.356C151.637 66.9635 158.952 64.5792 166.143 62.2032C168.458 70.3213 170.722 78.8683 172.938 87.8444ZM147.892 96.1605L122.202 104.576C121.21 95.1209 120.441 85.9634 119.97 77.1771L143.553 69.5788C144.875 78.0598 146.322 86.9204 147.892 96.1605ZM121.582 105.516C122.624 115.268 123.872 125.126 125.327 135.092C116.424 138.038 107.547 141.008 98.7932 144.052C97.4541 134.152 96.4374 124.079 95.7927 114.203C104.348 111.258 112.977 108.362 121.582 105.516ZM125.426 135.785C126.897 145.867 128.492 156.006 130.212 166.203C121.309 169.173 112.506 172.119 103.852 175.113C101.918 165.015 100.231 154.868 98.8924 144.77C107.646 141.726 116.523 138.755 125.426 135.785ZM130.385 166.921C132.038 177.069 133.782 187.035 135.617 196.819C127.062 199.666 118.631 202.462 110.398 205.309C108.117 195.706 105.96 185.88 104.025 175.831C112.655 172.828 121.425 169.858 130.336 166.921H130.385ZM135.741 197.537L140.701 225.604C132.815 228.079 125.079 230.727 117.565 233.276C115.085 224.465 112.605 215.357 110.423 206.051C118.73 203.18 127.162 200.359 135.741 197.537ZM140.974 226.322C142.586 235.083 144.073 243.449 145.412 251.369C138.395 253.621 131.625 255.799 125.178 257.952C122.698 250.527 120.218 242.434 117.912 233.969C125.351 231.42 133.063 228.871 140.924 226.322H140.974ZM145.536 252.062C146.776 259.487 147.892 266.466 148.785 273.025C142.933 274.832 137.403 276.564 132.171 278.272C129.939 272.184 127.682 265.625 125.401 258.645C131.774 256.492 138.494 254.314 145.487 252.062H145.536ZM148.884 273.743C149.678 279.683 150.322 285.054 150.67 289.781C146.156 291.118 141.99 292.256 138.147 293.568C136.361 289.344 134.452 284.468 132.419 278.94C137.552 277.257 143.181 275.624 148.835 273.743H148.884ZM149.578 273.52L168.301 267.729C168.046 273.603 167.366 279.451 166.267 285.227L151.389 289.583C150.967 284.831 150.347 279.46 149.529 273.52H149.578ZM169.02 267.506C175.591 265.452 182.311 263.348 189.106 261.17C187.895 267.629 186.076 273.96 183.675 280.079C177.972 281.811 172.417 283.445 167.061 285.029C168.101 279.239 168.739 273.384 168.97 267.506H169.02ZM274.607 202.141C269.648 205.061 264.49 207.858 258.836 210.58C260.627 201.224 261.664 191.739 261.936 182.217C267.353 179.608 272.633 176.725 277.757 173.579C277.538 183.173 276.484 192.729 274.607 202.141ZM277.781 172.737C272.971 175.732 267.664 178.603 261.961 181.425C261.961 179.742 261.961 178.084 261.961 176.475C261.953 168.202 261.448 159.937 260.448 151.725C265.723 149.141 270.863 146.291 275.847 143.186C277.091 151.834 277.721 160.56 277.732 169.297C277.757 170.46 277.757 171.673 277.732 172.737H277.781ZM198.851 23.791C193.623 18.9761 187.943 14.6745 181.89 10.9456C182.622 10.4405 183.204 9.74802 183.576 8.94086C190.66 12.0492 197.421 15.8461 203.761 20.2764C202.275 21.6449 200.626 22.8253 198.851 23.791ZM158.977 2.65432V2.48107C160.39 2.72857 161.779 3.07507 163.167 3.44632C163.115 3.64283 163.022 3.82607 162.894 3.98394C162.766 4.14181 162.605 4.2707 162.424 4.36208C161.016 3.61686 159.558 2.97175 158.059 2.43156L158.977 2.65432ZM162.473 5.12933C166.995 7.50147 171.201 10.4282 174.996 13.8414C172.516 14.9056 169.788 15.9452 166.738 17.0342C164.268 13.4043 161.479 10.0002 158.406 6.86185C159.802 6.39382 161.162 5.823 162.473 5.15408V5.12933ZM175.591 14.3364C180.384 18.6962 184.813 23.4392 188.833 28.5182C185.064 30.1023 180.922 31.6615 176.434 33.2455C173.604 27.8877 170.491 22.6829 167.11 17.6529C170.26 16.5639 173.086 15.4749 175.591 14.3611V14.3364ZM175.789 33.493C170.83 35.2255 165.672 37.0075 160.068 38.8143C158.134 32.5525 156.299 26.86 154.612 21.8109C158.902 20.4497 162.87 19.1627 166.441 17.9004C169.84 22.9321 172.961 28.1457 175.789 33.5178V33.493ZM159.597 39.7301C161.704 46.5611 163.837 53.8377 165.994 61.4855C158.853 63.9605 151.537 66.2375 144.123 68.6135C142.908 60.5945 141.817 52.9467 140.949 45.6701C147.322 43.6901 153.546 41.7348 159.597 39.7548V39.7301ZM95.1232 114.426C95.7679 124.326 96.7846 134.226 98.1237 144.275C89.6925 147.195 81.3357 150.19 73.1526 153.259C71.7294 143.329 70.8107 133.334 70.4001 123.311C78.5502 120.259 86.7829 117.305 95.0984 114.451L95.1232 114.426ZM98.2228 144.993C99.5867 155.091 101.273 165.213 103.182 175.336C94.9165 178.207 86.7995 181.12 78.8312 184.073C76.5499 174.173 74.6652 164.001 73.227 154.002C81.4101 150.933 89.7338 147.938 98.1981 145.017L98.2228 144.993ZM103.331 176.029C105.265 186.078 107.398 195.829 109.704 205.507C101.885 208.196 94.2635 210.91 86.8408 213.649C83.9147 204.319 81.2862 194.666 79.0296 184.766C86.9152 181.821 95.0488 178.925 103.306 176.054L103.331 176.029ZM109.853 206.323C112.118 215.679 114.498 224.754 116.995 233.549C109.952 236.024 103.108 238.35 96.5118 240.8C93.0898 232.303 89.9322 223.5 87.0392 214.392C94.4454 211.636 102.05 208.947 109.853 206.323ZM117.292 234.316C119.706 242.78 122.128 250.766 124.558 258.274C118.458 260.328 112.655 262.333 107.2 264.338C103.629 257.284 100.182 249.636 96.8838 241.518C103.397 239.027 110.167 236.593 117.193 234.217L117.292 234.316ZM124.731 259.066C127.013 266.046 129.269 272.604 131.501 278.693C126.542 280.277 122.103 281.836 117.862 283.371C114.079 277.456 110.603 271.351 107.448 265.08C112.853 262.902 118.631 260.898 124.682 258.868L124.731 259.066ZM131.749 279.361C133.782 284.88 135.667 289.756 137.452 293.989C134.03 295.053 130.881 296.092 128.029 297.157C124.466 293.003 121.201 288.603 118.259 283.989C122.4 282.257 126.914 280.722 131.699 279.163L131.749 279.361ZM137.725 294.632C139.238 298.147 140.651 301.191 142.015 303.74C140.155 304.26 138.544 304.78 137.056 305.299C133.872 303.157 130.979 300.611 128.451 297.726C131.278 296.513 134.353 295.424 137.676 294.434L137.725 294.632ZM137.08 306.091L137.924 306.562C137.457 306.512 136.994 306.437 136.535 306.339L137.08 306.091ZM144.52 307.527L142.04 307.205L140.478 306.982C139.621 306.643 138.792 306.237 137.998 305.77C139.263 305.324 140.751 304.854 142.412 304.384C143.031 305.533 143.807 306.591 144.718 307.527H144.52ZM142.784 303.517C141.42 301.042 140.007 297.949 138.494 294.434C142.263 293.246 146.38 291.959 150.893 290.722C150.893 292.726 151.091 294.632 151.091 296.414C151.091 298.196 151.091 299.854 150.868 301.364C147.644 301.958 144.991 302.676 142.66 303.319L142.784 303.517ZM189.899 261.12C196.793 258.893 203.637 256.641 210.332 254.364C208.248 261.329 205.473 268.069 202.05 274.485C196.247 276.391 190.37 278.223 184.543 280.005C186.892 273.819 188.669 267.432 189.85 260.922L189.899 261.12ZM211.151 254.067C217.896 251.773 224.508 249.397 230.989 246.938C228.167 254.417 224.516 261.556 220.102 268.224C214.597 270.278 208.894 272.233 203.141 274.164C206.474 267.684 209.141 260.884 211.101 253.869L211.151 254.067ZM231.757 246.641C237.957 244.166 243.958 241.691 249.686 239.093C246.425 246.935 242.326 254.403 237.461 261.368C232.278 263.62 226.798 265.798 221.119 267.902C225.431 261.134 228.982 253.913 231.708 246.369L231.757 246.641ZM250.653 238.647C255.96 236.172 261.043 233.697 265.829 230.851C262.349 238.968 258.028 246.699 252.934 253.918L249.116 255.923C245.809 257.573 242.338 259.223 238.701 260.873C243.464 253.864 247.454 246.363 250.603 238.499L250.653 238.647ZM275.45 201.893C277.274 192.501 278.286 182.97 278.476 173.406C282.476 170.949 286.266 168.168 289.808 165.09C289.733 174.56 288.795 184.004 287.006 193.305C283.361 196.375 279.481 199.156 275.401 201.621L275.45 201.893ZM276.442 142.32C274.973 132.344 272.701 122.503 269.648 112.892C273.106 110.673 276.337 108.119 279.294 105.269C282.686 114.549 285.267 124.105 287.006 133.83C283.724 136.861 280.171 139.586 276.393 141.973L276.442 142.32ZM269.425 112.273C266.394 102.811 262.664 93.5872 258.266 84.6764C261.216 82.7377 263.937 80.4709 266.375 77.9196C271.329 86.454 275.559 95.3869 279.021 104.625C276.099 107.502 272.882 110.065 269.425 112.273ZM257.943 84.0329C253.618 75.3721 248.644 67.049 243.065 59.1342C245.36 57.5291 247.436 55.6321 249.24 53.4912C255.467 60.9449 261.066 68.9003 265.978 77.2761C263.565 79.796 260.869 82.03 257.943 83.9339V84.0329ZM224.442 37.0075C218.4 30.9227 211.846 25.3665 204.852 20.4002C205.381 19.7665 205.678 18.9723 205.695 18.1479C205.675 17.7618 205.609 17.3795 205.497 17.0094L205.993 17.2817C213.896 21.6994 221.368 26.8451 228.31 32.6515C227.294 34.2609 225.982 35.6635 224.442 36.7848V37.0075ZM204.976 18.1479C204.976 18.827 204.719 19.481 204.257 19.9794C197.827 15.4212 190.957 11.516 183.749 8.32211C183.732 8.0186 183.647 7.72273 183.501 7.45585L184.245 7.6291C191.261 9.98665 198.056 12.9514 204.554 16.4897C204.789 16.9357 204.932 17.4236 204.976 17.9252V18.1479ZM153.372 1.96131C156.252 2.52635 159.045 3.46666 161.68 4.75808C160.439 5.36056 159.164 5.88948 157.861 6.34209C155.909 4.52026 153.64 3.06923 151.165 2.06031L150.744 1.88706L153.372 1.96131ZM157.662 7.15885C160.754 10.2779 163.552 13.6748 166.019 17.3064C162.523 18.5439 158.58 19.7814 154.389 21.1427C152.901 16.7867 151.537 12.8761 150.273 9.46061C153.1 8.64386 155.579 7.8766 157.662 7.15885ZM159.398 39.0618C153.372 41.0418 147.198 42.9971 140.875 44.9771C140.081 38.2698 139.461 32.1318 139.164 26.563C144.247 25.0285 149.083 23.5435 154.042 22.0337C155.579 27.1075 157.439 32.7753 159.398 39.0618ZM140.18 45.1999L119.673 51.6349C119.854 45.0032 120.459 38.3898 121.483 31.8348L138.469 26.7362C138.767 32.3545 139.387 38.4926 140.18 45.1999ZM118.954 51.8824C111.886 54.1099 104.695 56.4117 97.4541 58.8124C98.5273 51.6681 100.186 44.6236 102.414 37.7501C108.663 35.77 114.812 33.9138 120.789 32.107C119.76 38.6537 119.147 45.2586 118.954 51.8824ZM96.6358 59.06C89.5437 61.4112 82.3773 63.8615 75.2108 66.485C77.0624 58.8149 79.6879 51.3517 83.0468 44.2099C89.2627 42.0813 95.4042 40.0601 101.471 38.1461C99.3171 44.9781 97.7167 51.9719 96.6854 59.06H96.6358ZM74.3181 66.7325C67.35 69.2075 60.5803 71.6825 54.0585 74.4298C56.49 66.2755 59.7643 58.3955 63.8287 50.9171C69.6809 48.6896 75.7811 46.5364 82.0053 44.4079C78.742 51.5756 76.2163 59.0555 74.4668 66.7325H74.3181ZM74.1197 67.5493C72.1682 76.0887 70.834 84.7571 70.1273 93.4874C62.688 96.2594 55.3728 99.0562 48.4791 101.952C49.5658 92.935 51.3819 84.0206 53.9097 75.2961C60.4811 72.6725 67.2756 70.1975 74.2685 67.5493H74.1197ZM69.5073 123.584C69.9372 133.484 70.863 143.475 72.2847 153.556C64.4983 156.477 57.0838 159.397 50.1157 162.367C48.5359 152.462 47.5752 142.468 47.2392 132.444C54.414 129.441 61.8863 126.488 69.6562 123.584H69.5073ZM72.5326 154.348C73.9709 164.248 75.8555 174.396 78.1617 184.42C70.7224 187.241 63.5312 190.038 56.8607 192.859C54.1621 183.083 51.9933 173.169 50.3637 163.159C57.3566 160.14 64.771 157.194 72.5326 154.348ZM78.3105 185.113C80.5918 195.013 83.27 204.665 86.1713 213.996C79.2032 216.595 72.6566 219.144 66.606 221.718C62.9238 212.506 59.737 203.104 57.059 193.552C63.8288 190.657 70.7968 187.86 78.3105 185.038V185.113ZM86.3696 214.689C89.271 223.797 92.4202 232.633 95.8423 241.097C89.7173 243.35 83.9891 245.577 78.7568 247.805C74.3328 239.556 70.3674 231.07 66.8788 222.386C72.9294 219.738 79.4511 217.189 86.3696 214.615V214.689ZM96.0655 241.667C99.3718 249.785 102.802 257.391 106.356 264.486C101.397 266.367 96.6358 268.149 92.445 269.956C87.5453 263.032 83.0735 255.817 79.0544 248.349C84.3115 246.155 89.9818 243.927 96.0655 241.667ZM106.679 265.13C110.051 271.738 113.523 277.851 117.094 283.42C113.3 284.806 109.878 286.143 106.902 287.479C101.809 282.192 97.1173 276.533 92.8666 270.55C97.0574 268.768 101.694 266.986 106.704 265.13H106.679ZM117.49 284.039C120.422 288.653 123.679 293.053 127.236 297.206C124.756 298.097 122.847 298.889 121.185 299.681C116.222 296.251 111.611 292.338 107.423 287.999C110.398 286.712 113.771 285.524 117.515 284.039H117.49ZM127.757 297.775C130.264 300.684 133.14 303.255 136.312 305.423C135.985 305.568 135.677 305.75 135.394 305.968L131.774 305.324C128.288 303.966 124.962 302.231 121.855 300.151C123.516 299.384 125.5 298.617 127.781 297.899L127.757 297.775ZM125.773 304.903L126.095 305.052L125.525 304.854L125.773 304.903ZM130.013 305.72L131.6 306.017L132.989 306.512C131.997 306.289 131.03 306.017 130.038 305.72H130.013ZM149.132 306.017C150.261 304.848 151.005 303.363 151.265 301.76L161.432 299.112C159.863 301.897 157.577 304.212 154.811 305.819C152.157 306.314 149.851 306.71 148.066 307.007C148.413 306.735 148.785 306.388 149.157 306.017H149.132ZM184.146 280.574C189.924 278.841 195.727 277.01 201.504 275.129C198.43 280.73 194.646 285.912 190.246 290.548C185.659 291.835 181.071 293.023 176.558 294.31C179.685 290.086 182.236 285.467 184.146 280.574ZM202.471 274.782C208.175 272.926 213.779 270.971 219.259 268.966C214.943 275.357 209.891 281.222 204.207 286.44C200.017 287.727 195.776 288.915 191.536 290.202C195.802 285.557 199.476 280.403 202.471 274.857V274.782ZM220.4 268.545C226.029 266.466 231.46 264.313 236.618 262.11C231.542 269.209 225.678 275.71 219.135 281.49C214.821 283.024 210.332 284.509 205.77 285.945C211.296 280.749 216.205 274.936 220.4 268.62V268.545ZM237.882 261.566C241.899 259.833 245.768 258.027 249.388 256.22L251.868 254.883C246.25 262.68 239.78 269.827 232.576 276.193C228.856 277.843 224.946 279.394 220.846 280.846C227.219 275.093 232.933 268.651 237.882 261.64V261.566ZM235.601 274.881C238.081 272.926 240.56 270.872 242.916 268.768C242.631 269.854 242.214 270.901 241.676 271.887C239.742 272.976 237.709 273.966 235.601 274.956V274.881ZM238.973 271.218C244.251 265.934 249.071 260.212 253.381 254.116C255.588 252.928 257.695 251.641 259.679 250.502C253.409 258.032 246.479 264.989 238.973 271.293V271.218ZM287.899 192.463C289.604 183.154 290.476 173.712 290.503 164.248C292.813 162.169 294.861 159.817 296.603 157.244C296.146 167.763 294.592 178.206 291.966 188.404C290.699 189.866 289.34 191.247 287.899 192.538V192.463ZM296.677 155.635C294.964 158.384 292.878 160.883 290.478 163.06C290.443 153.301 289.563 143.562 287.849 133.954C290.153 131.79 292.11 129.286 293.652 126.529C295.289 134.425 296.325 142.434 296.751 150.487C296.751 152.269 296.727 154.01 296.677 155.709V155.635ZM266.499 76.6326C261.596 68.2702 256.015 60.3235 249.81 52.8724C250.905 51.4715 251.661 49.8366 252.017 48.0956C258.673 55.0527 264.713 62.5719 270.069 70.5688C269.353 72.833 268.132 74.906 266.499 76.6326ZM229.699 27.85C229.472 27.2233 229.172 26.6253 228.806 26.068C236.255 30.9057 243.281 36.3618 249.81 42.3783C250.667 43.5495 251.205 44.9224 251.372 46.3631C244.705 39.5704 237.453 33.3756 229.699 27.85ZM229.079 28.2707C229.157 28.6119 229.199 28.9603 229.203 29.3102C229.19 30.169 228.987 31.0142 228.608 31.7853C221.653 26.0097 214.182 20.8816 206.29 16.4649L205.174 15.7472C204.696 14.9113 204.094 14.1521 203.389 13.4949L204.53 13.9899C213.14 17.977 221.359 22.758 229.079 28.2707ZM147.843 1.81281H148.264L147.099 2.10981C147.099 2.10981 146.975 1.88706 146.925 1.81281H147.843ZM149.504 2.18406C152.303 3.1441 154.882 4.65007 157.092 6.61434C155.059 7.30735 152.703 8.00035 150.025 8.79236C149.157 6.51534 148.339 4.65908 147.719 3.37207L147.446 2.80282C148.289 2.58007 148.983 2.38206 149.504 2.18406ZM138.42 26.0432L121.632 30.9933C122.43 25.9103 123.785 20.9304 125.674 16.1432L138.494 12.6039C138.32 14.6829 138.221 16.8609 138.221 19.1874C138.221 21.5139 138.221 23.7415 138.42 26.0432ZM101.819 37.1808C95.8175 39.0866 89.6925 41.0666 83.518 43.1703C86.5589 36.8383 90.293 30.8618 94.652 25.3502C99.6115 23.8157 104.464 22.3554 109.208 20.9694C106.132 26.0735 103.653 31.5129 101.819 37.1808ZM82.5756 43.4921H82.3277C76.2275 45.5959 70.2513 47.6996 64.4983 49.8529C68.3001 42.9934 72.8311 36.5625 78.0129 30.6715C82.9724 28.939 88.2047 27.2807 93.4369 25.7215C89.1916 31.2413 85.5504 37.1987 82.5756 43.4921ZM93.3873 25.0037C88.4278 26.5382 83.6667 28.0975 78.9552 29.7063C83.7039 24.4551 89.0462 19.7709 94.8752 15.7472C98.7932 14.5839 102.761 13.4949 106.753 12.4306C102.085 16.0258 97.8787 20.1822 94.2304 24.8057L93.3873 25.0037ZM77.5914 30.1765C72.6319 31.8595 67.8955 33.6168 63.2832 35.473C68.6973 29.7401 74.6979 24.5887 81.187 20.1032C84.9562 18.7914 88.8246 17.6282 92.7178 16.3907C87.1887 20.4237 82.1166 25.0463 77.5914 30.1765ZM76.6243 31.2408C71.5921 37.1615 67.18 43.5804 63.4568 50.3974C57.7534 52.5507 52.2483 54.7782 47.016 57.1294C51.3465 49.8345 56.4241 43.0081 62.1673 36.76C66.8044 34.8048 71.6648 33.0723 76.6243 31.2408ZM62.936 51.3131C58.9407 58.7826 55.7329 66.6458 53.3642 74.7763C47.1152 77.2513 41.0895 79.9738 35.3612 82.7459C38.1805 74.1756 41.9045 65.9287 46.4705 58.1442C51.6284 55.7682 57.1582 53.5159 62.936 51.3131ZM35.0636 83.6616C40.7919 80.8896 46.8424 78.2413 53.1162 75.6673C50.639 84.4116 48.8808 93.343 47.8592 102.373C41.2878 105.145 34.9893 107.991 29.0875 110.936C30.2555 101.684 32.2556 92.5558 35.0636 83.6616ZM46.6937 132.741C47.0297 142.765 47.9904 152.759 49.5702 162.664C42.9575 165.486 36.7912 168.365 31.0712 171.302C29.2501 161.494 28.1314 151.569 27.7236 141.602C33.6502 138.508 39.9983 135.587 46.6937 132.741ZM49.6942 163.407C51.3202 173.419 53.4974 183.334 56.2159 193.107C49.9917 195.755 44.1643 198.453 38.8577 201.25C35.643 191.701 33.0912 181.943 31.2201 172.044C36.9235 169.198 43.1228 166.203 49.6942 163.407ZM56.3895 193.775C59.0712 203.325 62.258 212.727 65.9365 221.941C60.3323 224.416 55.1 226.891 50.3637 229.366C45.9905 220.465 42.205 211.287 39.0313 201.893C44.3875 199.121 50.1901 196.423 56.3895 193.775ZM66.3085 222.584C69.8056 231.269 73.7792 239.754 78.2113 248.003C73.4006 250.082 68.9866 252.136 65.019 254.265C59.7149 246.477 54.9589 238.331 50.7853 229.886C55.3976 227.411 60.6051 224.985 66.3085 222.584ZM78.5336 248.646C82.5592 256.105 87.0222 263.32 91.8995 270.253C88.4584 271.725 85.0978 273.377 81.8317 275.203C75.8534 268.851 70.3735 262.05 65.4406 254.859C69.2594 252.755 73.7477 250.701 78.4345 248.646H78.5336ZM99.2148 291.712C98.074 292.47 97.1029 293.456 96.363 294.607C89.0532 290.49 82.1386 285.709 75.7067 280.326C77.5393 278.704 79.5432 277.285 81.6829 276.094C87.0378 281.786 92.8699 287.011 99.1155 291.712H99.2148ZM82.3277 275.748C85.5388 273.914 88.8503 272.261 92.2467 270.798C96.4941 276.784 101.177 282.451 106.257 287.751C103.999 288.75 101.819 289.916 99.7355 291.241C93.4762 286.574 87.6201 281.391 82.2285 275.748H82.3277ZM106.852 288.345C111.04 292.691 115.641 296.62 120.59 300.077C119.672 300.574 118.836 301.209 118.11 301.958C111.91 299.2 106.031 295.773 100.579 291.736C102.552 290.459 104.616 289.326 106.753 288.345H106.852ZM120.516 303.814C121.78 304.309 122.996 304.78 124.31 305.2C122.5 304.705 120.714 304.136 118.954 303.468L120.516 303.814ZM151.835 307.106C151.103 307.298 150.357 307.43 149.603 307.502L151.835 307.106ZM155.183 306.487C157.191 306.141 159.373 305.72 161.655 305.275C158.99 306.362 156.185 307.071 153.323 307.378C153.93 307.123 154.518 306.825 155.083 306.487H155.183ZM164.581 304.681H165.002L172.69 303.022C168.426 304.93 163.921 306.246 159.299 306.933C161.093 306.344 162.828 305.59 164.482 304.681H164.581ZM166.639 303.517C170.164 301.338 173.292 298.576 175.889 295.35L189.254 291.662C185.22 295.634 180.605 298.973 175.566 301.562C172.417 302.28 169.466 302.849 166.54 303.517H166.639ZM190.668 291.142C194.809 289.979 198.925 288.791 203.067 287.529C198.132 291.892 192.696 295.655 186.874 298.741C183.973 299.483 181.071 300.201 178.22 300.869C182.756 298.246 186.911 295.015 190.569 291.266L190.668 291.142ZM204.678 287.009C209.117 285.648 213.506 284.212 217.747 282.727C212.256 287.455 206.289 291.602 199.942 295.102C196.495 296.191 193.048 297.181 189.651 298.097C195.008 294.989 200.013 291.313 204.579 287.133L204.678 287.009ZM219.557 282.059C223.301 280.722 226.996 279.336 230.393 277.901C227.087 280.326 223.665 282.62 220.127 284.781L220.326 285.078L220.003 284.905C219.595 285.609 219.13 286.28 218.615 286.91C216.656 288.222 214.672 289.385 212.638 290.623C209.514 291.811 206.365 292.924 203.191 293.964C208.987 290.556 214.45 286.611 219.507 282.183L219.557 282.059ZM214.002 290.895L214.796 290.573C213.923 291.243 213.012 291.863 212.068 292.429C208.72 294.088 205.323 295.622 201.876 296.983C205.646 295.333 209.332 293.436 212.936 291.291L214.002 290.895ZM216.606 290.029L218.019 289.261L216.408 290.152L216.606 290.029ZM243.685 270.773L242.792 271.268C243.288 270.204 243.647 269.081 243.858 267.927C250.273 262.163 256.226 255.907 261.663 249.215C262.159 248.918 262.63 248.597 263.101 248.275C263.101 248.597 263.101 248.918 263.101 249.215C257.37 257.086 250.847 264.351 243.635 270.897L243.685 270.773ZM263.82 247.78L264.292 247.458L263.82 248.151C263.82 248.151 263.82 247.928 263.82 247.829V247.78ZM263.82 246.938V246.592C266.945 242.615 269.879 238.49 272.624 234.217C270.463 238.169 268.104 242.011 265.556 245.726C264.912 246.245 264.341 246.666 263.746 247.062L263.82 246.938ZM279.691 222.188C279.939 221.718 280.187 221.248 280.41 220.778C282.573 219.013 284.566 217.049 286.361 214.912C285.022 218.154 283.584 221.372 281.997 224.515C281.328 225.777 280.633 226.99 279.914 228.252C280.051 227.434 280.126 226.607 280.137 225.777C280.094 224.562 279.902 223.357 279.567 222.188H279.691ZM287.328 212.486C285.572 214.898 283.551 217.107 281.303 219.07C284.933 211.771 287.984 204.199 290.428 196.423C290.882 197.899 291.116 199.434 291.122 200.977C290.031 204.888 288.742 208.724 287.254 212.486H287.328ZM294.941 184.568C294.374 185.425 293.762 186.251 293.106 187.043C294.672 180.705 295.831 174.273 296.578 167.787L296.776 168.307C296.43 173.757 295.792 179.185 294.867 184.568H294.941ZM296.776 166.624L297.074 163.308C297.074 164.471 297.074 165.609 296.925 166.773L296.776 166.624ZM294.297 125.613C294.421 125.291 294.52 124.994 294.644 124.697C295.338 128.732 295.859 132.815 296.231 136.899C295.611 133.063 294.941 129.326 294.148 125.613H294.297ZM285.146 92.9182C285.146 93.8872 285.021 94.8521 284.774 95.7892C280.91 86.9218 276.263 78.4154 270.888 70.3708C271.037 69.7213 271.112 69.0571 271.111 68.3908C271.1 67.6829 271.017 66.978 270.863 66.287C274.481 71.4446 277.753 76.8354 280.658 82.4241C282.245 85.5179 283.733 88.6611 285.072 91.8787C285.072 92.2265 285.047 92.5738 284.998 92.9182H285.146ZM269.425 64.505C269.958 65.7318 270.236 67.0536 270.243 68.3908C270.268 68.7698 270.268 69.1502 270.243 69.5293C264.845 61.5509 258.773 54.0489 252.091 47.1056V46.8829C252.07 45.8686 251.851 44.8681 251.447 43.9376C254.521 46.8251 257.472 49.8446 260.299 52.9962C263.49 56.6757 266.532 60.512 269.425 64.505ZM149.33 8.99036C146.231 9.90612 142.883 10.8466 139.411 11.8614C139.616 9.1849 140.331 6.57214 141.519 4.16408L146.851 2.97607C147.804 4.92647 148.632 6.93527 149.33 8.99036ZM138.544 12.0594L126.145 15.4997C127.617 12.018 129.757 8.85688 132.443 6.19359L140.602 4.38683C139.493 6.81223 138.797 9.40538 138.544 12.0594ZM125.128 15.7472L110.944 19.7567C113.646 15.6138 116.995 11.929 120.863 8.84186C124.384 8.00035 127.757 7.20835 130.956 6.36684C128.468 9.12133 126.494 12.2982 125.128 15.7472ZM109.778 20.0784C105.092 21.4397 100.306 22.8505 95.4455 24.3602C99.2845 19.6884 103.71 15.5292 108.613 11.9851C112.308 11.0199 115.879 10.1289 119.301 9.28736C115.591 12.3759 112.38 16.0154 109.778 20.0784ZM110.349 10.7971C114.63 7.91521 119.319 5.68787 124.26 4.18883L129.641 3.17407C126.422 4.39151 123.391 6.05808 120.64 8.1241C117.317 8.96561 113.895 9.83187 110.349 10.7971ZM108.315 11.3169L107.497 11.5396C103.926 12.4801 100.38 13.4701 96.8342 14.4849C102.069 11.0877 107.698 8.33682 113.597 6.29259C115.656 5.84709 117.714 5.45109 119.747 5.05508C115.705 6.66966 111.868 8.75486 108.315 11.2674V11.3169ZM94.5528 15.1532C90.8332 16.2422 87.1136 17.3807 83.518 18.6182C89.3577 14.7867 95.5929 11.5921 102.116 9.08936C104.397 8.49536 106.728 7.9261 109.035 7.3816C103.951 9.44549 99.0976 12.0335 94.5528 15.1037V15.1532ZM80.8646 19.5092C77.5665 20.6724 74.3181 21.9842 71.1688 23.197C77.3378 19.0387 83.8791 15.4594 90.7092 12.5049C92.7922 11.7871 94.9248 11.1189 97.0574 10.4754C91.4023 12.9824 85.9831 15.9892 80.8646 19.4597V19.5092ZM78.6824 21.0437C72.5509 25.5053 66.8776 30.5625 61.7458 36.1413C57.4062 37.9233 53.2402 39.8043 49.347 41.8091C55.1122 35.6854 61.4568 30.132 68.2923 25.2265C71.6152 23.692 75.1116 22.306 78.7072 20.9942L78.6824 21.0437ZM60.5803 37.4036C55.0135 43.645 50.0873 50.4274 45.8753 57.6492C40.9159 59.8767 36.2787 62.228 31.9392 64.7277C36.5517 57.0758 41.9091 49.8965 47.9335 43.2941C51.9259 41.1656 56.1663 39.2103 60.5803 37.3541V37.4036ZM45.2554 58.7135C40.8148 66.4838 37.1995 74.6959 34.4685 83.2161C29.4187 85.6313 24.4942 88.2995 19.714 91.2104C22.6535 82.4286 26.5013 73.9762 31.1952 65.99C35.751 63.3054 40.4441 60.86 45.2554 58.6639V58.7135ZM34.1958 84.1566C31.4297 93.0393 29.4629 102.15 28.3187 111.382C23.1516 113.89 18.1191 116.666 13.2419 119.698C14.4122 110.37 16.4545 101.173 19.342 92.2252C24.1449 89.257 29.1032 86.5471 34.1958 84.1071V84.1566ZM30.5505 172.416C32.4303 182.304 34.9821 192.054 38.1881 201.596C33.7183 203.869 29.4025 206.432 25.2686 209.269C21.5579 200.008 18.5976 190.465 16.416 180.732C20.9527 177.659 25.673 174.865 30.5505 172.366V172.416ZM24.9463 210.382C28.627 219.519 33.0128 228.357 38.0642 236.816C35.6144 238.577 33.4198 240.668 31.5424 243.028C25.9422 234.991 21.0314 226.496 16.8623 217.634C19.2395 214.872 21.9555 212.419 24.9463 210.333V210.382ZM25.5414 209.962C29.6542 207.119 33.9539 204.556 38.4113 202.289C41.5873 211.639 45.3644 220.774 49.719 229.638C45.8703 231.629 42.1663 233.887 38.6345 236.395C33.5938 227.917 29.2164 219.063 25.5414 209.912V209.962ZM50.0413 230.282C54.2288 238.724 58.9929 246.87 64.2999 254.661C61.2303 256.291 58.295 258.161 55.5216 260.254C49.4297 252.928 43.9164 245.141 39.0313 236.964C42.5371 234.463 46.2163 232.213 50.0413 230.232V230.282ZM64.6967 255.255C69.6613 262.457 75.1743 269.267 81.187 275.624C79.0285 276.829 77.008 278.264 75.1612 279.906C68.2819 274.079 61.9032 267.687 56.0919 260.799C58.7993 258.698 61.6776 256.827 64.6967 255.205V255.255ZM74.6157 280.401C73.5528 281.386 72.7518 282.619 72.2847 283.989C64.6982 278.683 57.5877 272.729 51.0332 266.194C52.225 264.293 53.7446 262.617 55.5216 261.244C61.3064 268.141 67.6694 274.533 74.5413 280.351L74.6157 280.401ZM75.1612 280.871C81.6491 286.297 88.6216 291.119 95.9911 295.276C95.7771 295.761 95.6511 296.281 95.6191 296.81C95.6191 296.81 95.6191 297.082 95.6191 297.231C87.6496 293.67 80.0287 289.378 72.855 284.41C73.2539 283.032 74.0262 281.79 75.0868 280.821L75.1612 280.871ZM99.7603 292.207C105.121 296.174 110.88 299.574 116.945 302.354C113.895 301.686 110.746 300.943 107.547 300.151C103.976 298.642 100.455 296.909 96.9582 295.003C97.6618 293.878 98.5903 292.909 99.6859 292.157L99.7603 292.207ZM114.837 302.626L117.54 303.765C115.829 303.245 114.143 302.676 112.581 302.057L114.837 302.626ZM110.969 302.28C109.613 301.785 108.274 301.265 106.952 300.721H107.348C108.464 301.29 109.679 301.76 110.944 302.23L110.969 302.28ZM175.765 302.305C178.418 301.711 181.096 301.092 183.799 300.399C178.85 302.765 173.64 304.543 168.276 305.695L166.441 305.968C169.636 305.028 172.733 303.785 175.69 302.255L175.765 302.305ZM187.047 299.582C190.197 298.765 193.346 297.899 196.545 296.959C190.795 299.833 184.772 302.13 178.567 303.814L175.517 304.433C179.468 303.127 183.3 301.487 186.973 299.533L187.047 299.582ZM251.223 264.635C255.393 260.296 259.286 255.7 262.878 250.874C262.729 251.639 262.522 252.392 262.258 253.126C258.712 257.086 255.017 260.922 251.149 264.585L251.223 264.635ZM263.622 249.785C264.416 248.696 265.184 247.607 265.953 246.493C267.515 245.33 268.978 244.166 270.317 242.978C268.086 246.023 265.73 249.017 263.25 251.913C263.448 251.166 263.589 250.405 263.672 249.636L263.622 249.785ZM291.767 201.769C291.767 201.596 291.767 201.423 291.767 201.25C293.309 195.904 294.542 190.475 295.462 184.989L295.611 184.766C295.984 184.141 296.323 183.497 296.628 182.836C295.453 189.199 293.845 195.475 291.817 201.621L291.767 201.769ZM299.207 154.893C299.195 160.574 298.872 166.25 298.239 171.896C298.056 170.712 297.749 169.551 297.322 168.431C297.495 165.337 297.595 162.243 297.595 159.15C297.595 157.962 297.595 156.675 297.595 155.536C297.635 155.448 297.685 155.365 297.743 155.289C298.353 154.097 298.835 152.844 299.182 151.551C299.405 152.517 299.405 153.63 299.405 154.744L299.207 154.893ZM296.999 137.716L296.826 137.84C296.428 132.959 295.783 128.102 294.892 123.287C295.125 122.412 295.274 121.517 295.338 120.614C296.85 127.276 297.919 134.031 298.537 140.835C298.166 139.701 297.684 138.607 297.099 137.567L296.999 137.716ZM292.635 110.491C292.36 110.046 292.062 109.617 291.742 109.204C290.082 103.305 288.044 97.5177 285.642 91.8787C285.654 91.8132 285.654 91.7461 285.642 91.6807C288.429 97.7245 290.798 103.951 292.734 110.318L292.635 110.491ZM148.562 0.897055C149.247 0.85389 149.935 0.85389 150.62 0.897055H149.256C148.81 0.87298 148.363 0.87298 147.917 0.897055H147.719C147.653 0.886426 147.586 0.886426 147.52 0.897055H147.272C147.192 0.866585 147.104 0.866585 147.024 0.897055H146.9H147.099C147.584 0.824864 148.077 0.824864 148.562 0.897055ZM145.437 0.897055C145.76 1.07031 145.834 1.16931 145.834 1.39206H146.132L145.983 1.54056C146.128 1.71598 146.252 1.9069 146.355 2.10981L141.941 3.37207C142.208 2.8771 142.596 2.45694 143.068 2.14997C143.54 1.84301 144.082 1.65901 144.644 1.61481V0.921805C143.844 1.01691 143.083 1.3148 142.432 1.78707C141.781 2.25933 141.262 2.89022 140.924 3.61957L133.485 5.27783C135.476 3.5674 137.876 2.3994 140.453 1.88706V1.19406C137.32 1.82407 134.441 3.35556 132.171 5.59959H131.947L122.624 7.7776C125.945 5.42685 129.667 3.69918 133.609 2.67907V2.40682C136.971 1.64727 140.387 1.14258 143.825 0.897055C144.359 0.805623 144.904 0.805623 145.437 0.897055ZM80.2199 16.4154L83.0468 15.2027C77.7778 17.9168 72.714 21.0105 67.8955 24.4592C65.639 25.4492 63.4568 26.4887 61.2994 27.5777C67.2997 23.391 73.6268 19.6913 80.2199 16.5144V16.4154ZM56.9846 30.7458C59.5801 29.2607 62.283 27.85 65.0934 26.5135C58.7447 31.3189 52.8513 36.6958 47.4872 42.5763C44.1891 44.3088 41.0647 46.1156 38.1138 48.0461C43.885 41.7696 50.1997 36.0135 56.9846 30.8448V30.7458ZM36.1796 50.3974C39.3696 48.1924 42.6811 46.168 46.0986 44.3336C40.3018 50.8758 35.1529 57.9627 30.7241 65.495C27.0808 67.6211 23.5773 69.9772 20.2348 72.5488C24.8405 64.6813 30.179 57.2647 36.1796 50.3974ZM7.53846 100.937C10.9227 97.9225 14.556 95.1986 18.3997 92.7944C15.5834 101.734 13.5995 110.914 12.4731 120.218C8.69477 122.652 5.13537 125.41 1.83503 128.459C2.85586 119.125 4.76564 109.91 7.53846 100.937ZM0.793539 146.057C0.793539 140.538 1.11588 135.018 1.66143 129.548C4.96235 126.427 8.53955 123.611 12.3492 121.133C11.5833 127.656 11.2024 134.218 11.2085 140.785C11.2085 143.904 11.2085 147.022 11.4565 150.141C7.81963 152.559 4.41597 155.31 1.28948 158.358C0.967114 154.348 0.793539 150.165 0.793539 146.057ZM6.49697 188.998C9.28529 186.007 12.405 183.342 15.796 181.054C17.9861 190.779 20.9548 200.314 24.6735 209.566C21.6794 211.647 18.9411 214.073 16.5151 216.793C12.3737 207.836 9.02163 198.536 6.49697 188.998ZM31.9888 243.449C33.832 241.083 36.0028 238.992 38.4361 237.236C43.3312 245.411 48.8615 253.19 54.976 260.502C53.1993 261.89 51.6659 263.562 50.4381 265.452C43.6857 258.696 37.5141 251.385 31.9888 243.597V243.449ZM96.4622 297.404C96.3329 297.16 96.2649 296.888 96.2639 296.612C96.2769 296.202 96.3695 295.799 96.5366 295.424C98.7684 296.662 101.025 297.899 103.306 298.864H102.786V299.211L102.637 299.508C104.373 300.349 106.158 301.117 107.943 301.834C104.059 300.613 100.231 299.186 96.4622 297.553V297.404ZM240.436 274.881C240.66 274.634 240.858 274.362 241.056 274.114C242.462 272.976 243.875 271.812 245.297 270.624L246.363 269.981C244.429 271.812 242.371 273.446 240.436 275.03V274.881ZM254.918 262.952C256.175 261.698 257.414 260.411 258.638 259.091C257.522 260.537 256.277 261.879 254.918 263.1V262.952ZM262.804 253.299L263.349 252.656L262.804 253.324V253.299Z" fill="url(#paint0_linear_1_3188)"/>
<defs>
<linearGradient id="paint0_linear_1_3188" x1="1.90157e-06" y1="308" x2="303.867" y2="291.243" gradientUnits="userSpaceOnUse">
<stop stop-color="#FFDE00"/>
<stop offset="1" stop-color="#43F272"/>
</linearGradient>
</defs>
</svg>
