<svg width="336" height="218" viewBox="0 0 336 218" fill="none" xmlns="http://www.w3.org/2000/svg">
<path d="M0 157.382C0 172.186 20.8567 186.438 47.0714 196.283C79.3705 208.356 118.28 215.22 159.742 217.925C163.072 217.474 166.403 216.973 169.758 216.472C205.133 215.168 240.234 209.72 274.341 200.24C288.598 196.377 302.323 190.765 315.203 183.533C324.818 177.822 332.254 171.184 335.033 163.895C335.587 162.46 335.908 160.947 335.985 159.411C336.147 155.303 334.999 151.25 332.705 147.838C332.955 147.237 333.206 146.611 333.406 145.985C333.854 144.515 334.082 142.987 334.082 141.451C333.988 137.106 332.376 132.932 329.525 129.653C329.951 128.196 330.17 126.687 330.176 125.169C330.148 122.749 329.601 120.364 328.573 118.173C327.545 115.982 326.06 114.037 324.217 112.469C324.437 111.423 324.546 110.357 324.543 109.288C324.584 106.829 324.016 104.398 322.889 102.212C321.762 100.027 320.11 98.1547 318.083 96.7639L317.081 96.1377C317.201 95.4006 317.259 94.655 317.256 93.9083C317.32 91.6809 316.807 89.4748 315.768 87.5042C314.728 85.5336 313.197 83.8653 311.322 82.6614C310.383 82.1044 309.394 81.6348 308.368 81.2587C308.368 80.6825 308.368 80.1315 308.368 79.5554C308.508 77.4746 308.067 75.3957 307.094 73.5512C306.122 71.7066 304.655 70.1689 302.86 69.11C301.28 68.3268 299.592 67.7863 297.852 67.5069C297.852 66.9558 297.852 66.4298 297.852 65.9038C297.852 61.5202 296.174 57.813 292.97 56.4353C290.947 55.6343 288.784 55.2509 286.61 55.3081H286.284C286.363 54.6178 286.405 53.9238 286.41 53.2291C286.41 49.096 284.982 45.7144 282.178 44.7626C281.022 44.3882 279.812 44.2105 278.598 44.2366C276.753 44.2709 274.92 44.5317 273.139 45.0131C273.315 43.8943 273.407 42.7639 273.415 41.6315C273.415 37.8241 272.288 34.9184 269.935 34.2671C269.333 34.0931 268.708 34.0087 268.082 34.0166C264.742 34.3103 261.518 35.3826 258.668 37.1477C259.103 35.1895 259.338 33.192 259.369 31.1862C259.369 27.8046 258.517 25.3247 256.664 24.9991H255.838C252.433 24.9991 247.876 28.3055 242.618 33.0397C242.969 31.6621 243.294 30.3094 243.57 29.0069C244.069 26.6923 244.345 24.3354 244.396 21.9682C244.396 19.1627 243.82 17.259 242.468 17.1338H242.268C239.063 17.1338 234.756 22.1435 229.749 28.4809C228.021 30.635 226.268 32.9897 224.491 35.4695C225.793 30.585 226.844 26.1012 227.645 22.0934C228.232 19.3662 228.568 16.5909 228.647 13.8023C228.647 11.8735 228.372 10.6461 227.545 10.6211C224.891 10.9216 222.087 16.3322 218.181 23.396C213.574 31.7121 208.566 42.0823 203.033 54.231C203.384 52.7531 203.734 51.2753 204.06 49.8225C207.139 36.6719 209.618 25.6003 211.221 16.758C211.902 13.521 212.354 10.2397 212.573 6.93888C212.573 6.13732 212.573 5.61135 212.147 5.5863H211.997C209.969 6.58825 208.667 12.0238 206.063 19.4883C202.557 29.5079 198.551 42.2577 193.969 57.3371C188.962 74.1448 183.478 92.706 177.82 112.67L187.284 55.8842C189.788 40.379 192.016 27.2785 193.769 16.8081C195.046 9.06803 195.872 4.28372 196.148 2.17962V2.43013C195.872 3.60742 195.221 8.01603 194.32 13.1009C192.818 21.9682 190.94 33.1399 188.686 46.4909C186.183 61.7206 183.328 78.5785 180.274 96.789C179.522 101.298 178.746 105.857 177.995 110.415C179.047 90.5517 179.923 72.0407 180.499 55.1578C181 41.1555 181.3 29.057 181.3 19.0375V8.26646C181.3 4.18351 181.175 1.37809 180.073 0.326036C180.008 0.303115 179.938 0.303115 179.873 0.326036C178.947 0.326036 178.045 5.33578 177.094 11.1972C175.717 20.0645 174.415 31.2362 173.038 44.7876C173.038 45.6643 172.862 46.541 172.762 47.4177C171.51 34.8933 170.258 24.1474 168.581 15.2551C167.129 7.28958 166.077 1.25285 163.748 0.100606H163.448C161.946 0.100606 160.619 4.93496 159.767 10.9216C159.217 14.8042 158.766 19.1627 158.39 23.922C157.589 21.2668 156.763 18.7118 155.887 16.4073C153.082 8.46685 150.629 2.40504 147.474 1.52833H147.123C145.02 1.52833 143.292 6.36276 142.491 12.4246C142.341 13.652 142.191 14.9295 142.091 16.232C138.41 9.71935 134.93 5.01014 131.5 4.45907H131.149C128.445 4.45907 126.317 9.16824 125.541 15.1799C122.135 11.5228 118.88 9.14322 115.926 8.94283H115.676C112.671 8.94283 110.292 12.8003 109.291 18.0105C106.87 16.2121 103.986 15.1431 100.978 14.9294C97.498 14.9294 94.7688 18.5616 93.592 23.5212C91.6742 22.7735 89.6406 22.3666 87.5829 22.3189H86.7316C82.8007 22.6445 79.746 26.2766 78.4941 31.2362C77.5252 31.0803 76.546 30.9966 75.5647 30.9857C74.8359 30.9842 74.108 31.0344 73.3864 31.136C68.8795 31.7622 65.4743 35.72 64.2224 40.88C63.1727 40.9294 62.1273 41.0465 61.0927 41.2307C58.5199 41.886 56.1974 43.2859 54.4159 45.2552C52.6345 47.2246 51.4732 49.6759 51.0775 52.3023C50.727 52.3023 50.3764 52.3023 50.0509 52.5277C47.16 53.3368 44.5734 54.9841 42.6172 57.2621C40.6611 59.5401 39.423 62.3466 39.0593 65.3276C36.0927 66.4759 33.5191 68.454 31.6456 71.0257C29.772 73.5973 28.6777 76.654 28.4932 79.8309C25.9541 81.2654 23.8093 83.3061 22.2497 85.7711C20.6901 88.236 19.7642 91.0487 19.5547 93.9584C19.5547 94.2089 19.5547 94.4594 19.5547 94.6848C19.5547 94.9102 19.5547 95.3111 19.5547 95.6117C17.4311 97.1791 15.6731 99.1892 14.4022 101.503C13.1312 103.817 12.3777 106.379 12.1935 109.013C12.1935 109.213 12.1935 109.414 12.1935 109.589C12.1979 110.527 12.2649 111.465 12.3938 112.394C8.93124 115.607 6.83397 120.028 6.53492 124.743V125.194C6.54788 126.796 6.73255 128.391 7.08576 129.954C4.42249 133.043 2.85551 136.927 2.629 141V141.351C2.65308 143.599 3.05948 145.827 3.83081 147.939C1.84172 150.786 0.696141 154.138 0.525777 157.607C0.525777 157.607 0 157.282 0 157.382ZM28.1677 79.4051C29.1977 78.7813 30.2781 78.245 31.3976 77.8019C34.0198 76.7988 36.7382 76.0686 39.51 75.6227C40.4603 79.5627 41.7591 83.4103 43.3909 87.1201C38.7654 87.5636 34.1948 88.4613 29.7451 89.8003C28.7446 86.7153 28.2046 83.4995 28.1427 80.2567C28.1427 79.9562 28.1677 79.6806 28.1677 79.4051ZM38.6336 66.1042C38.6336 65.7034 38.6336 65.3026 38.6336 64.8767L39.7103 64.476C43.322 63.3765 47.0769 62.8193 50.8522 62.8227C51.5749 66.8576 52.6473 70.8219 54.057 74.6708H50.8271C47.0462 74.6469 43.2696 74.9317 39.535 75.5225C38.8921 72.8893 38.5477 70.1921 38.5084 67.4818C38.6086 66.9809 38.6086 66.5551 38.6336 66.1042ZM124.789 26.0261C124.768 22.3282 124.952 18.632 125.34 14.9545C127.31 17.1105 129.165 19.368 130.899 21.7177C134.582 26.7542 138.001 31.9799 141.139 37.3732C141.139 39.8781 141.139 42.6334 141.264 45.4139C141.39 48.1943 141.44 51.125 141.565 54.0307C136.411 46.5041 130.853 39.2627 124.915 32.3384C124.839 30.1842 124.789 28.0801 124.789 26.0762V26.0261ZM141.239 33.5408C141.239 27.0949 141.448 21.3253 141.865 16.232C142.241 16.8833 142.616 17.5846 142.992 18.286C148.273 28.4911 152.873 39.0346 156.763 49.8475C156.588 55.0075 156.462 60.3679 156.362 65.8787C155.16 63.3738 153.858 60.8689 152.732 58.5143C148.826 50.7993 145.003 43.7523 141.264 37.3732C141.264 36.0206 141.239 34.743 141.239 33.4906V33.5408ZM311.322 152.548C299.39 162.102 286.463 170.34 272.764 177.12C238.366 194.329 202.119 207.557 164.725 216.547H163.448C200.348 203.628 235.748 186.764 269.033 166.249C282.35 158.153 294.837 148.764 306.315 138.22C308.268 136.366 310.121 134.487 311.848 132.634C316.136 134.535 320.229 136.85 324.067 139.547C320.33 144.354 316.054 148.716 311.322 152.548ZM324.217 139.622C326.146 141.014 327.963 142.555 329.65 144.231C330.731 145.348 331.703 146.564 332.555 147.863C329.7 154.677 323.215 161.29 314.828 167.401C302.54 175.904 289.296 182.932 275.368 188.342C241.365 201.752 205.913 211.143 169.733 216.322L165.426 216.522C202.603 207.536 238.639 194.351 272.839 177.221C286.547 170.444 299.483 162.205 311.423 152.648C316.174 148.804 320.474 144.435 324.242 139.622H324.217ZM156.287 94.9604V94.4594C159.976 97.6656 163.657 101.005 167.329 104.479C167.329 104.98 167.329 105.481 167.204 105.982C163.573 103.251 159.918 100.596 156.287 97.9912V94.9604ZM180.449 114.073H187.735C179.047 147.688 169.657 182.406 160.018 216.647C165.752 182.255 171.535 147.513 177.169 113.947H177.369C180.95 113.471 184.53 113.021 188.11 112.62C187.985 113.071 187.885 113.522 187.76 113.972H180.424L180.449 114.073ZM175.942 113.597C172.887 113.396 169.833 113.221 166.778 113.071V112.169C169.883 112.536 172.946 113.012 175.967 113.597H175.942ZM166.853 112.044V111.117L175.892 113.446C172.937 112.945 169.908 112.469 166.878 112.044H166.853ZM177.019 113.797C171.41 147.438 165.601 182.18 159.868 216.497C161.796 181.88 164.124 146.937 166.753 113.146C170.208 113.371 173.613 113.572 177.044 113.797H177.019ZM166.628 113.071C163.223 112.92 159.792 112.795 156.387 112.695C156.387 112.044 156.387 111.392 156.387 110.741C159.843 111.167 163.273 111.643 166.728 112.144L166.628 113.071ZM166.628 113.221C163.999 147.012 161.62 181.93 159.717 216.547C157.865 181.83 156.738 146.761 156.387 112.845C159.818 112.92 163.223 113.046 166.653 113.221H166.628ZM159.592 216.547C153.909 181.83 149.277 146.686 145.972 112.645C149.377 112.645 152.807 112.645 156.262 112.845C156.613 146.761 157.764 181.83 159.617 216.547H159.592ZM187.885 113.972C191.616 113.972 195.397 113.972 198.977 113.972C187.084 147.738 173.939 182.481 160.143 216.672C169.833 182.356 179.222 147.638 187.91 113.972H187.885ZM176.017 113.321C172.988 112.494 169.958 111.718 166.928 110.966V110.015C170 111.067 173.063 112.169 176.117 113.321H176.017ZM167.028 109.864V108.837C170.008 110.265 173.013 111.693 175.992 113.171C173.088 112.044 170.058 110.941 167.054 109.864H167.028ZM166.803 110.942C163.323 110.065 159.818 109.238 156.362 108.437C156.362 107.735 156.362 107.034 156.362 106.307C159.868 107.485 163.373 108.687 166.903 109.965L166.803 110.942ZM166.803 110.942V111.893C163.348 111.367 159.918 110.916 156.462 110.466V108.462L166.803 110.942ZM156.262 110.466C152.707 110.015 149.176 109.589 145.671 109.213L145.371 106.082C149.001 106.808 152.607 107.61 156.237 108.437C156.237 109.238 156.237 109.914 156.262 110.591V110.466ZM156.262 110.591C156.262 111.242 156.262 111.918 156.262 112.57C152.807 112.57 149.377 112.419 145.946 112.394L145.646 109.363C149.201 109.864 152.732 110.215 156.262 110.716V110.591ZM145.821 112.394H141.865H135.33C135.08 111.042 134.855 109.689 134.604 108.311C138.235 108.612 141.89 108.963 145.546 109.363C145.646 110.491 145.746 111.493 145.821 112.52V112.394ZM141.865 112.394H145.846C149.176 146.436 153.808 181.579 159.467 216.297C149.902 181.729 141.69 146.536 135.38 112.419L141.865 112.394ZM159.392 216.372C145.893 182.474 134.258 147.864 124.539 112.695C128.094 112.57 131.7 112.495 135.28 112.444C141.565 146.811 149.752 182.005 159.342 216.597L159.392 216.372ZM159.267 216.372C141.655 183.017 126.289 148.524 113.272 113.121C116.952 112.92 120.783 112.72 124.414 112.595C134.105 147.906 145.724 182.659 159.217 216.697L159.267 216.372ZM160.494 216.372C178.671 182.506 195.822 147.788 211.02 113.947C215.051 114.098 219.057 114.273 223.038 114.498H223.414C204.786 148.389 183.353 183.007 160.519 216.347L160.494 216.372ZM160.343 216.372C174.139 182.23 187.309 147.463 199.202 113.672C203.133 113.672 207.014 113.797 210.87 113.947C195.622 148.114 178.471 182.857 160.293 216.672L160.343 216.372ZM199.252 113.672L200.154 111.167C204.36 110.791 208.516 110.466 212.673 110.215L210.97 114.022C207.014 113.997 203.133 113.897 199.202 113.872L199.252 113.672ZM199.102 113.672C195.422 113.672 191.716 113.672 188.01 113.672C188.135 113.221 188.236 112.77 188.361 112.319C192.267 111.868 196.148 111.467 200.003 111.117L199.102 113.672ZM188.386 112.144C188.386 111.793 188.561 111.442 188.661 111.092C192.768 110.215 196.824 109.363 200.88 108.587L200.054 110.942C196.148 111.493 192.242 111.893 188.336 112.344L188.386 112.144ZM188.236 112.144C185.106 112.494 181.976 112.895 178.821 113.296L188.511 111.117C188.361 111.668 188.286 112.019 188.186 112.344L188.236 112.144ZM178.771 113.171C182.151 111.994 185.507 110.891 188.786 109.814L188.486 110.966C185.256 111.868 181.976 112.72 178.621 113.371L178.771 113.171ZM176.267 112.845L167.254 108.487V107.359L176.267 112.845ZM167.354 107.209C167.354 106.783 167.354 106.358 167.354 105.932C170.308 108.153 173.28 110.424 176.267 112.745C173.263 111.067 170.258 109.213 167.254 107.41L167.354 107.209ZM167.104 108.412C163.548 106.742 160.001 105.072 156.462 103.402C156.462 102.55 156.462 101.698 156.462 100.897C160.051 102.951 163.64 105.063 167.229 107.234C167.079 107.86 167.028 108.236 167.003 108.612L167.104 108.412ZM167.104 108.562C167.104 108.913 167.104 109.263 167.104 109.614C163.598 108.336 160.068 107.109 156.563 105.957V103.652C159.968 105.389 163.448 107.092 167.003 108.762L167.104 108.562ZM156.337 105.907C152.582 104.679 148.826 103.402 145.145 102.325C145.145 101.097 144.92 99.8198 144.82 98.6175C148.626 100.221 152.481 101.874 156.312 103.627C156.212 104.579 156.212 105.331 156.237 106.107L156.337 105.907ZM156.337 106.057V108.211C152.707 107.385 149.076 106.583 145.471 105.857L145.07 102.7C148.776 103.828 152.506 105.03 156.237 106.257L156.337 106.057ZM145.321 105.806L133.903 103.627C133.628 102.074 133.327 100.496 133.052 98.9431C137.025 100.045 141.014 101.206 145.02 102.425L145.321 105.806ZM145.321 105.957C145.321 107.034 145.496 108.086 145.596 109.138C141.94 108.762 138.285 108.386 134.654 108.086L133.903 103.778C137.642 104.596 141.423 105.389 145.245 106.157L145.321 105.957ZM134.529 108.086C130.698 107.76 126.893 107.51 123.112 107.309C122.636 105.431 122.11 103.577 121.635 101.749C125.641 102.35 129.697 103.026 133.753 103.753C133.928 105.406 134.179 106.834 134.454 108.286L134.529 108.086ZM134.529 108.236C134.78 109.589 135.005 110.967 135.255 112.319C131.65 112.319 128.069 112.469 124.514 112.595C124.038 110.866 123.588 109.163 123.137 107.435C126.868 107.861 130.648 108.111 134.479 108.437L134.529 108.236ZM124.314 112.72C120.583 112.845 116.802 113.021 113.147 113.246L110.918 107.009C114.899 107.134 118.905 107.334 122.937 107.56C123.387 109.338 123.838 111.067 124.314 112.72ZM113.022 113.246L109.541 113.446L101.404 114.073L100.052 111.167L98.1239 106.783C102.13 106.783 106.211 106.783 110.317 106.984H110.768C111.519 109.163 112.245 111.242 113.022 113.321V113.246ZM109.541 113.597L113.072 113.396C126.089 148.791 141.455 183.276 159.066 216.622C137.175 184.078 117.918 149.836 101.479 114.223C104.133 114.073 106.812 113.847 109.541 113.672V113.597ZM160.944 216.672C187.225 186.034 211.623 153.829 234.005 120.235C234.982 118.782 235.908 117.329 236.859 115.901C240.064 116.202 243.244 116.502 246.374 116.853L250.906 117.429C248.302 120.869 245.598 124.351 242.793 127.874C217.655 159.398 190.284 189.073 160.894 216.672H160.944ZM233.88 120.235C211.449 153.857 187 186.087 160.669 216.748C183.478 183.408 204.911 148.79 223.539 114.924C227.971 115.2 232.378 115.525 236.709 115.926C235.758 117.304 234.831 118.732 233.88 120.235ZM223.689 114.724L224.416 113.421C225.142 112.144 225.818 110.916 226.494 109.589C231.501 109.414 236.233 109.313 241.041 109.313C239.689 111.442 238.287 113.597 236.884 115.751C232.428 115.35 228.046 114.999 223.689 114.724ZM224.315 113.346C224.04 113.797 223.79 114.248 223.539 114.724H223.089C219.133 114.498 215.152 114.323 211.145 114.173L212.873 110.34C217.38 110.04 221.887 109.814 226.343 109.639L224.315 113.346ZM212.823 110.215L213.975 107.71C214.175 107.309 214.35 106.909 214.526 106.483C219.533 105.681 224.315 104.98 229.123 104.354L226.318 109.589C221.862 109.614 217.355 109.864 212.823 110.215ZM213.85 107.71C213.474 108.587 213.073 109.464 212.673 110.34C208.541 110.591 204.36 110.916 200.154 111.292C200.454 110.516 200.73 109.714 201.005 108.938C205.487 108.086 209.919 107.284 214.35 106.558L213.85 107.71ZM201.055 108.787C201.356 107.886 201.681 106.959 202.007 106.057C206.814 104.621 211.596 103.277 216.353 102.024C215.727 103.477 215.076 104.955 214.425 106.408C209.994 106.959 205.537 107.71 201.155 108.612L201.055 108.787ZM200.88 108.787C196.824 109.564 192.742 110.415 188.661 111.292L188.962 110.115C193.268 108.712 197.575 107.36 201.831 106.082L200.88 108.787ZM188.987 109.94L189.362 108.562C193.919 106.541 198.468 104.604 203.008 102.751V102.901C202.683 103.903 202.307 104.93 201.956 105.932C197.65 107.117 193.327 108.403 188.987 109.789V109.94ZM188.837 109.94C185.456 111.042 182.076 112.169 178.646 113.346C182.185 111.676 185.698 110.09 189.187 108.587C189.062 108.938 188.962 109.388 188.837 109.839V109.94ZM178.621 113.121C182.327 110.916 186.016 108.762 189.688 106.658C189.538 107.209 189.387 107.76 189.262 108.311C185.724 109.864 182.176 111.468 178.621 113.121ZM176.393 112.845C173.388 110.507 170.384 108.22 167.379 105.982C167.379 105.481 167.379 104.98 167.504 104.504C170.434 107.234 173.413 110.015 176.368 112.845H176.393ZM167.529 104.329C167.529 103.727 167.529 103.126 167.654 102.55C170.609 105.882 173.538 109.263 176.493 112.745C173.472 109.889 170.475 107.084 167.504 104.329H167.529ZM167.229 106.032C167.229 106.458 167.229 106.884 167.229 107.334C163.648 105.155 160.043 103.026 156.462 100.972C156.462 100.02 156.462 99.0433 156.462 98.0664C160.001 100.655 163.582 103.31 167.204 106.032H167.229ZM156.212 100.897C152.256 98.6425 148.3 96.4549 144.344 94.3341C144.194 92.706 144.069 91.1029 143.943 89.4997C148.033 92.2217 152.123 95.0438 156.212 97.9662V100.897ZM156.212 101.072V103.577C152.356 101.907 148.517 100.237 144.695 98.5674C144.695 97.6656 144.519 96.7388 144.444 95.8371C144.444 95.3612 144.444 94.8852 144.444 94.4093C148.317 96.5969 152.239 98.8179 156.212 101.072ZM144.294 95.9372C144.294 96.8139 144.469 97.7157 144.544 98.6175C140.371 96.9475 136.198 95.2776 132.025 93.6077C131.675 91.6289 131.374 89.65 131.049 87.6962C135.405 89.8504 139.779 92.0965 144.169 94.4344C144.219 94.9353 144.269 95.4362 144.294 95.9372ZM144.569 98.7678C144.569 99.9951 144.795 101.273 144.895 102.475C140.889 101.248 136.908 99.9701 132.927 98.9682L132.776 98.0664C132.526 96.6136 132.276 95.1858 132.05 93.758C136.207 95.3444 140.38 97.0143 144.569 98.7678ZM132.626 98.0915L132.776 98.9431C128.47 97.7408 124.188 96.6136 119.932 95.5615C119.356 93.257 118.78 91.0026 118.254 88.7482C122.786 90.3013 127.318 91.9545 131.9 93.758C132.125 95.1858 132.376 96.6136 132.626 98.0915ZM132.802 99.0934C133.077 100.646 133.377 102.25 133.653 103.803C129.597 103.076 125.541 102.4 121.509 101.799C121.479 101.645 121.437 101.495 121.384 101.348L119.957 95.7118C124.214 96.7638 128.495 97.8911 132.802 99.0934ZM121.259 101.373C121.259 101.523 121.259 101.648 121.259 101.774L111.72 100.421L108.389 100.02C107.513 97.5153 106.687 95.0104 105.886 92.5056C108.54 93.0566 111.194 93.6328 113.898 94.259L119.707 95.6617C120.283 97.6907 120.758 99.4691 121.259 101.373ZM111.795 100.571C115 100.972 118.179 101.448 121.409 101.924C121.885 103.778 122.386 105.631 122.886 107.485C118.855 107.259 114.849 107.059 110.868 106.934C110.743 106.533 110.593 106.157 110.443 105.756C109.792 103.878 109.166 102.024 108.515 100.17L111.795 100.571ZM110.317 105.806L110.718 106.934H110.317C106.186 106.808 102.105 106.758 98.0738 106.758C96.897 104.078 95.7453 101.398 94.6687 98.7678C99.1505 99.1685 103.732 99.6194 108.364 100.17L110.317 105.806ZM97.9737 106.859L99.9267 111.292C100.377 112.244 100.803 113.221 101.254 114.173C97.1224 114.523 93.0662 114.949 89.0601 115.4C87.5328 112.62 86.0556 109.864 84.6284 107.109C89.0101 106.959 93.4418 106.859 97.9486 106.859H97.9737ZM101.304 114.373C117.742 150.003 136.999 184.261 158.891 216.823C133.028 185.982 110.078 152.809 90.3371 117.73L89.1352 115.525C93.1413 115.075 97.1724 114.649 101.304 114.298V114.373ZM90.2119 117.88C109.962 152.901 132.903 186.022 158.741 216.823C129.924 188.991 104.002 158.308 81.3735 125.244C79.5958 122.589 77.8932 119.959 76.2157 117.354C80.397 116.728 84.6535 116.127 88.985 115.626C89.3856 116.302 89.7863 117.053 90.2119 117.73V117.88ZM160.844 217.173C160.972 217.073 161.105 216.981 161.245 216.898L160.844 217.173ZM161.62 216.873H161.821L160.944 217.274L161.62 216.873ZM161.42 216.748C193.4 192.517 223.346 165.708 250.956 136.591C256.347 130.864 261.355 125.236 265.979 119.709C271.32 120.644 276.461 121.679 281.402 122.815C274.416 130.329 266.529 138.019 257.891 145.784C227.987 172.319 195.72 196.064 161.495 216.722L161.42 216.748ZM250.856 136.591C223.2 165.708 193.213 192.516 161.195 216.748C190.547 189.17 217.891 159.528 243.019 128.05C245.823 124.493 248.552 120.986 251.156 117.504C256.164 118.156 261.113 118.89 266.004 119.709C261.263 125.169 256.214 130.747 250.856 136.441V136.591ZM251.156 117.454C253.109 114.949 254.987 112.319 256.84 109.764C262.473 110.015 267.907 110.415 273.19 110.916C270.919 113.822 268.524 116.736 266.004 119.658C261.163 118.74 256.239 117.955 251.231 117.304L251.156 117.454ZM251.006 117.454L246.399 116.878C243.269 116.527 240.114 116.227 236.935 115.926C238.362 113.772 239.739 111.618 241.091 109.489H242.869C247.576 109.489 252.158 109.614 256.664 109.789C254.812 112.169 252.934 114.699 251.006 117.279V117.454ZM242.869 109.338H241.216C242.668 107.084 244.07 104.83 245.447 102.6C251.306 102.083 257.007 101.724 262.548 101.523C260.696 104.203 258.768 106.909 256.79 109.664C252.233 109.288 247.601 109.188 242.869 109.163V109.338ZM241.016 109.338C236.233 109.338 231.376 109.338 226.494 109.614L229.298 104.379C233.354 103.853 237.385 103.377 241.366 102.976L245.247 102.625C243.87 104.679 242.468 106.909 241.016 109.163V109.338ZM241.366 102.826C237.41 103.226 233.404 103.702 229.373 104.228C230.5 102.149 231.576 100.07 232.653 98.0414L239.188 96.6136C242.894 95.8371 246.549 95.1607 250.155 94.5345C248.577 97.0394 246.975 99.7948 245.322 102.475L241.366 102.826ZM229.223 104.253C224.391 104.855 219.508 105.581 214.576 106.383L216.529 101.974C221.887 100.546 227.22 99.2687 232.453 98.0664C231.401 99.945 230.325 101.999 229.223 104.078V104.253ZM216.704 101.749L218.982 96.5134C224.841 94.3341 230.675 92.2801 236.509 90.4515L232.678 97.9662C227.295 98.918 221.962 100.196 216.604 101.648L216.704 101.749ZM216.529 101.749C211.771 103.034 206.981 104.387 202.157 105.806L203.183 102.876C203.173 102.784 203.173 102.692 203.183 102.6C208.391 100.471 213.574 98.4422 218.682 96.5385L216.529 101.749ZM203.334 102.425C203.784 101.089 204.235 99.7864 204.686 98.5173C210.394 95.4613 216.044 92.5807 221.636 89.8755C220.735 92.0297 219.809 94.1838 218.857 96.3631C213.674 98.1917 208.466 100.196 203.233 102.35L203.334 102.425ZM203.158 102.425C198.485 104.279 193.894 106.216 189.387 108.236C189.538 107.685 189.688 107.134 189.813 106.583C194.72 103.777 199.586 101.097 204.41 98.5423L203.158 102.425ZM189.963 106.383C190.164 105.681 190.339 104.98 190.514 104.279C195.822 100.496 201.055 96.7638 206.263 93.3572C205.712 95.0104 205.136 96.6636 204.56 98.367C199.653 100.897 194.771 103.577 189.863 106.383H189.963ZM189.788 106.383C186.082 108.487 182.352 110.666 178.596 112.92C182.535 109.965 186.45 107.092 190.339 104.304C190.063 105.205 189.888 105.781 189.688 106.483L189.788 106.383ZM178.496 112.82C182.727 108.888 186.909 105.08 191.015 101.373L190.314 104.103C186.358 107.009 182.377 109.939 178.396 112.92L178.496 112.82ZM176.693 112.595C173.714 109.063 170.734 105.631 167.755 102.25C167.755 101.498 167.755 100.747 167.93 99.9952C170.801 104.17 173.689 108.412 176.593 112.72L176.693 112.595ZM167.955 99.7948L168.18 96.839C171.06 101.849 173.939 107.159 176.818 112.52C173.764 108.286 170.809 104.028 167.855 99.895L167.955 99.7948ZM167.629 102.074C163.899 97.866 160.118 93.7329 156.412 89.7502V84.3898C160.218 89.3995 164.016 94.5429 167.805 99.8198C167.654 100.671 167.579 101.448 167.529 102.174L167.629 102.074ZM167.629 102.275L167.479 104.103C163.807 100.763 160.126 97.4235 156.437 94.0836V90.176C160.043 94.0335 163.774 98.1666 167.504 102.375L167.629 102.275ZM156.087 91.7541V94.1337C151.83 90.4265 147.591 86.8446 143.368 83.3878C143.192 80.883 143.017 78.6286 142.842 76.274C147.265 80.6659 151.68 85.2081 156.087 89.9005V91.7541ZM156.087 94.259V94.8852C156.087 95.812 156.087 96.7889 156.087 97.7157C151.981 94.8101 147.883 91.9879 143.793 89.2492C143.643 87.3205 143.493 85.3917 143.343 83.513C147.674 87.0449 151.931 90.6269 156.087 94.3341V94.259ZM143.568 89.2492C138.961 86.1599 134.354 83.2125 129.747 80.407C129.313 77.6016 128.912 74.8211 128.545 72.0657L129.096 72.4665C133.753 75.9734 138.427 79.6472 143.117 83.488C143.568 85.3666 143.568 87.2704 143.743 89.2242L143.568 89.2492ZM143.568 89.4246C143.568 91.0277 143.818 92.6559 143.968 94.2841C139.562 91.9295 135.18 89.6751 130.824 87.5209C130.448 85.1913 130.097 82.8618 129.747 80.5824C134.554 83.3878 139.136 86.3185 143.768 89.3995L143.568 89.4246ZM130.673 87.4457C127.193 85.7424 123.738 84.0641 120.283 82.436C118.905 81.7847 117.528 81.1836 116.176 80.5824C115.475 77.5014 114.824 74.4704 114.198 71.4646C117.537 73.2848 120.925 75.2135 124.364 77.2509L129.597 80.432C130.147 82.6614 130.498 85.1663 130.874 87.4207L130.673 87.4457ZM120.408 82.6614C123.888 84.2395 127.393 85.9428 130.899 87.6712C131.199 89.625 131.525 91.6038 131.85 93.6077C127.293 91.8543 122.736 90.2261 118.204 88.5979C117.578 85.9678 116.977 83.3878 116.402 80.8078L120.408 82.6614ZM118.054 88.5979L116.927 88.1972C112.287 86.6274 107.722 85.1746 103.232 83.8387C102.255 80.5824 101.304 77.3761 100.452 74.22C105.585 76.1988 110.868 78.4031 116.251 80.7827C116.836 83.321 117.437 85.901 118.054 88.5228V88.5979ZM116.877 88.3475L118.079 88.7482C118.63 91.0277 119.181 93.3071 119.757 95.5866L114.023 94.2089C111.319 93.5826 108.615 93.0065 105.936 92.4304C105.009 89.5999 104.133 86.7944 103.282 83.989C107.739 85.2581 112.27 86.6859 116.877 88.2723V88.3475ZM105.786 92.4054C100.778 91.3534 95.8454 90.4432 90.9881 89.675C89.6861 86.3352 88.4592 82.9954 87.3075 79.6555C92.4653 80.8579 97.7233 82.1605 103.132 83.8638C103.983 86.6692 104.859 89.4746 105.786 92.3302V92.4054ZM105.786 92.5557C106.587 95.0606 107.413 97.5655 108.289 100.07C103.657 99.5193 99.0753 99.0433 94.5685 98.6926C93.3416 95.6868 92.0647 92.756 91.0131 89.8253C95.9957 90.5267 100.803 91.4536 105.836 92.4806L105.786 92.5557ZM94.3932 98.6676C89.3856 98.2668 84.6034 97.9662 79.8963 97.8159C78.2438 94.4092 76.6914 91.0527 75.2642 87.7964C80.2718 88.314 85.463 88.9987 90.8379 89.8504C92.0146 92.6809 93.1914 95.6116 94.4433 98.5924L94.3932 98.6676ZM94.3932 98.8179C95.4949 101.448 96.6466 104.128 97.8234 106.808C93.2916 106.808 88.8348 106.808 84.4782 107.059C82.8757 103.978 81.3485 100.947 79.8963 97.9412C84.7036 98.0581 89.5692 98.3253 94.4934 98.7428L94.3932 98.8179ZM84.378 107.059C79.6208 107.259 74.9387 107.535 70.3818 107.911C68.3788 104.529 66.4759 101.172 64.7232 97.891C66.6762 97.891 68.6542 97.891 70.6572 97.891C73.6618 97.891 76.7164 97.891 79.8211 98.0664C81.2983 100.872 82.8257 103.903 84.4031 106.984L84.378 107.059ZM84.378 107.209C85.8052 109.939 87.2825 112.72 88.8098 115.5C84.4865 116.001 80.2301 116.577 76.0404 117.229C74.0624 114.148 72.1845 111.067 70.3818 108.061C75.0389 107.71 79.6959 107.309 84.4782 107.134L84.378 107.209ZM75.8902 117.229C71.3332 117.93 66.8932 118.765 62.5699 119.734C60.0661 116.402 57.8878 113.096 55.7847 109.714C60.4417 109.013 65.2741 108.462 70.2316 108.036C72.1345 111.017 74.0123 114.073 75.9653 117.179L75.8902 117.229ZM75.8902 117.354C77.5677 119.984 79.2953 122.614 81.073 125.294C103.765 158.315 129.737 188.955 158.591 216.748C127.26 192.187 98.7137 164.266 73.4615 133.485C69.7392 128.826 66.2338 124.226 62.9455 119.684C67.1519 118.815 71.4918 118.022 75.9653 117.304L75.8902 117.354ZM72.9857 133.611C98.24 164.374 126.787 192.278 158.115 216.823C123.337 194.504 91.589 169.23 66.0502 142.628C59.6906 135.99 53.9318 129.402 48.8491 122.915L51.7285 122.188C55.2338 121.312 58.8643 120.51 62.5199 119.684C65.9501 124.267 69.4053 128.901 73.161 133.561L72.9857 133.611ZM158.265 216.948L158.44 217.098L158.215 216.948H158.265ZM161.921 216.823H162.346L160.794 217.374L161.921 216.823ZM162.246 216.672C198.058 199.842 232.095 179.467 263.85 155.854C275.601 147.146 286.659 137.54 296.926 127.123L298.603 127.649C302.983 129.099 307.287 130.771 311.498 132.659C309.829 134.512 308.001 136.366 306.014 138.22C294.528 148.768 282.041 158.172 268.733 166.299C235.328 186.871 199.802 203.777 162.772 216.722L162.246 216.672ZM263.775 155.754C231.933 179.418 197.803 199.834 161.896 216.697H161.62C195.771 196.08 227.963 172.377 257.791 145.885C266.488 138.086 274.35 130.404 281.377 122.84C286.769 124.109 291.901 125.52 296.775 127.073C286.6 137.433 275.652 147.005 264.026 155.704L263.775 155.754ZM281.753 122.739C284.707 119.533 287.503 116.344 290.14 113.171C291.943 113.488 293.721 113.839 295.473 114.223C299.179 115.024 302.709 115.926 306.039 116.928C304.112 119.433 301.958 121.938 299.655 124.443C298.828 125.319 297.977 126.196 297.151 127.098C292.243 125.244 287.111 123.942 281.753 122.739ZM281.577 122.739C276.57 121.587 271.562 120.56 266.179 119.633C268.683 116.703 271.187 113.772 273.365 110.891C279.149 111.467 284.707 112.219 289.99 113.171C287.353 116.21 284.548 119.4 281.577 122.739ZM273.465 110.766C275.969 107.61 278.331 104.504 280.551 101.448C284.732 101.623 288.788 101.899 292.669 102.325C294.447 102.525 296.149 102.776 297.827 103.026C295.949 105.706 293.846 108.437 291.592 111.242L290.09 113.046C284.807 111.994 279.249 111.242 273.465 110.666V110.766ZM273.315 110.766C268.032 110.24 262.573 109.839 256.94 109.614C258.918 106.859 260.846 104.153 262.699 101.448C265.753 101.448 268.783 101.273 271.737 101.273C274.692 101.273 277.571 101.273 280.401 101.473C278.147 104.446 275.785 107.501 273.315 110.641V110.766ZM271.737 101.147C268.833 101.147 265.828 101.147 262.799 101.323C265.002 98.0998 267.105 94.9269 269.108 91.8042C275.172 91.1548 281.263 90.812 287.361 90.7772H287.687C286.009 93.4574 284.156 96.1877 282.178 98.9932L280.476 101.323C277.621 101.072 274.717 101.022 271.737 101.022V101.147ZM262.624 101.323C257.09 101.523 251.382 101.899 245.498 102.4C247.175 99.7196 248.778 97.0645 250.33 94.4344C256.765 93.3072 262.974 92.4305 268.908 91.9295C266.93 94.8101 264.827 97.9912 262.624 101.197V101.323ZM250.43 94.2841C252.333 91.0528 254.161 87.8715 255.913 84.7655C262.425 83.0654 269.019 81.6944 275.668 80.6575C274.366 82.962 272.989 85.2915 271.487 87.7212C270.686 89.0238 269.859 90.2261 268.983 91.6539C263.041 92.205 256.856 93.0399 250.43 94.1588V94.2841ZM250.23 94.2841C246.599 94.9353 242.919 95.6116 239.138 96.4132C237.01 96.839 234.881 97.315 232.728 97.7909C234.03 95.286 235.232 92.7811 236.559 90.2763C243.169 88.1471 249.579 86.2684 255.713 84.6903C253.985 87.7964 252.158 90.9776 250.23 94.1839V94.2841ZM236.659 90.176C238.237 87.0449 239.739 83.989 241.216 80.9831C248.427 77.9271 255.363 75.297 261.948 73.1679C261.221 74.5957 260.47 76.0235 259.694 77.5014C258.467 79.8309 257.19 82.2105 255.813 84.5901C249.654 86.068 243.269 87.9467 236.659 90.176ZM236.459 90.176H236.259C230.55 92.0046 224.791 94.0336 218.957 96.2128C219.884 94.0085 220.81 91.8292 221.736 89.7001C225.442 87.8966 229.123 86.1432 232.778 84.515C235.557 83.2625 238.312 82.0101 241.016 80.933C239.538 83.9639 238.036 87.0199 236.459 90.176ZM232.703 84.4649C229.123 86.068 225.467 87.7964 221.812 89.4747C223.013 86.6191 224.165 83.8387 225.317 81.0582C226.419 80.407 227.52 79.7056 228.647 79.0544C234.84 75.3805 240.815 72.0407 246.574 69.0349C244.905 72.8423 243.086 76.7248 241.116 80.6825C238.337 81.935 235.557 83.1374 232.703 84.4148V84.4649ZM221.611 89.65C216.036 92.3553 210.386 95.2359 204.661 98.2918C205.236 96.5885 205.812 94.9353 206.363 93.2821C212.689 89.0405 218.941 85.0411 225.117 81.2837C223.965 83.989 222.813 86.7694 221.611 89.5999V89.65ZM206.438 93.0566L208.717 86.2935C213.841 82.0519 218.916 78.0023 223.94 74.1448L229.724 69.8114C228.296 73.4935 226.769 77.326 225.192 81.0833C219.032 84.7738 212.781 88.7483 206.438 93.0066V93.0566ZM206.238 93.1819C201.03 96.6888 195.772 100.329 190.464 104.103C190.689 103.201 190.94 102.275 191.165 101.348C197.024 96.1627 202.808 91.178 208.516 86.4688C207.765 88.623 207.014 90.8774 206.163 93.1318L206.238 93.1819ZM191.215 101.122C191.39 100.471 191.541 99.7948 191.716 99.1685L192.217 97.1647C198.893 89.9005 205.42 83.0204 211.796 76.5244C210.745 79.714 209.668 82.9453 208.567 86.2184C202.875 90.9275 197.066 95.8788 191.14 101.072L191.215 101.122ZM191.591 99.1185C191.39 99.8449 191.215 100.571 191.015 101.273C186.808 105.03 182.552 108.787 178.271 112.87C182.878 107.56 187.459 102.4 192.016 97.3901C191.891 97.9161 191.741 98.4922 191.616 99.0683L191.591 99.1185ZM178.195 112.72C183.403 105.205 188.553 97.9745 193.644 91.0277C193.143 93.0316 192.617 95.0355 192.117 97.0645C187.51 102.124 182.869 107.343 178.195 112.72ZM176.843 112.545C173.939 107.134 171.026 101.849 168.105 96.6887C168.105 96.1878 168.105 95.6617 168.105 95.1607L168.33 92.5056C171.218 98.9848 174.056 105.665 176.843 112.545ZM168.606 92.205L169.132 85.7674C171.836 94.3592 174.49 103.302 177.094 112.52C174.164 105.581 171.335 98.7928 168.606 92.205ZM168.205 95.1607C168.205 95.5865 168.205 96.0375 168.205 96.4633C164.349 89.6751 160.494 83.0872 156.588 76.7749C156.588 73.2681 156.588 69.8113 156.738 66.4298C160.694 74.6291 164.633 83.2292 168.556 92.2301C168.255 93.207 168.18 94.1588 168.08 95.1858L168.205 95.1607ZM168.205 96.7137L167.98 99.6945C164.174 94.3842 160.368 89.2409 156.563 84.2646C156.563 81.7597 156.563 79.4301 156.563 77.0254C160.318 83.3544 164.116 89.9172 167.955 96.7137H168.205ZM156.437 84.0641C151.83 78.019 147.207 72.2328 142.566 66.7053C142.349 62.5472 142.149 58.4893 141.965 54.5316C143.468 56.6607 144.945 58.84 146.472 61.1194C149.811 66.1292 153.149 71.3644 156.487 76.8251C156.212 79.2047 156.087 81.6093 156.087 84.0641H156.437ZM156.437 84.3146C156.437 86.0931 156.437 87.8715 156.437 89.7001C152.031 84.9659 147.599 80.432 143.192 76.0485C142.967 72.9675 142.792 69.9366 142.616 66.9558C147.04 72.4165 151.53 78.2027 156.087 84.3146H156.437ZM143.017 75.9233C140.288 73.218 137.559 70.5628 134.83 68.0078C132.1 65.4529 129.997 63.5492 127.619 61.4451C127.093 57.0615 126.642 52.7782 126.267 48.6201C130.874 53.3961 135.589 58.6312 140.413 64.3257L142.441 66.8305C142.366 69.7613 142.541 72.7922 142.767 75.9233H143.017ZM134.729 68.1081C137.484 70.6129 140.263 73.3934 143.017 76.1237C143.184 78.4783 143.359 80.8579 143.543 83.2625C138.886 79.4551 134.229 75.7479 129.597 72.3413L128.946 71.8654C128.47 68.3836 128.044 64.9769 127.644 61.6454C129.747 63.7245 132.1 65.8537 134.479 68.1081H134.729ZM128.545 71.7402C122.987 67.6071 117.553 63.7746 112.245 60.3178C111.795 57.6877 111.344 55.0827 110.943 52.5528C110.668 50.8244 110.443 49.1461 110.192 47.543C115.726 51.651 121.409 56.3602 127.243 61.5453C127.644 64.8517 128.069 68.2584 128.545 71.7402ZM128.545 71.9405C128.929 74.6625 129.33 77.4429 129.747 80.2817L124.614 77.1506C121.134 75.0966 117.729 73.1679 114.349 71.3143C113.572 67.6321 112.896 64.0251 112.27 60.5183C117.578 63.975 123.012 67.8075 128.545 71.9405ZM114.173 71.2141C108.465 68.0913 102.898 65.2692 97.4729 62.7476C97.1224 61.2697 96.7718 59.7919 96.4463 58.339C95.8204 55.5336 95.2696 52.8032 94.7688 50.1731C100.377 53.0955 106.153 56.5021 112.095 60.393C112.746 63.9249 113.522 67.6321 114.198 71.2141H114.173ZM114.173 71.3894C114.774 74.3953 115.425 77.4512 116.126 80.5322C110.743 78.1526 105.485 75.9483 100.327 73.9945C99.2756 70.2372 98.3242 66.555 97.4729 62.948C102.956 65.4278 108.515 68.2583 114.248 71.3894H114.173ZM100.152 73.8943C94.4433 71.7151 88.8599 69.7863 83.4516 68.1832C83.1762 67.3065 82.9008 66.4047 82.6504 65.503C81.6739 62.1965 80.8226 58.9903 80.1466 55.9093C85.9896 57.9194 91.7228 60.2354 97.3227 62.8478C98.2407 66.4715 99.2089 70.1621 100.227 73.9194L100.152 73.8943ZM100.152 74.0697C101.028 77.2258 101.955 80.4321 102.956 83.6884C97.548 82.0853 92.265 80.7076 87.1322 79.5052C85.7802 75.6978 84.6284 71.9906 83.4516 68.3586C88.985 69.9867 94.5685 71.9154 100.277 74.0947L100.152 74.0697ZM86.957 79.4552C81.3234 78.1526 75.8401 76.9503 70.532 76.274C70.2566 75.5225 69.9562 74.771 69.7058 74.0697C68.4789 70.663 67.4023 67.4067 66.5009 64.2505C68.2536 64.5511 70.0563 64.9268 71.8841 65.3276C75.5897 66.1542 79.3955 67.1562 83.3014 68.3084C84.5283 71.9655 85.7551 75.6979 87.0822 79.4802L86.957 79.4552ZM86.957 79.6305C88.1087 82.8869 89.3356 86.2267 90.6375 89.65C85.3295 88.7984 80.1216 88.1221 75.0639 87.6211C73.4114 83.8387 71.9091 80.1064 70.532 76.5244C75.9569 77.2759 81.4903 78.3196 87.1322 79.6555L86.957 79.6305ZM74.8887 87.4958C69.8811 86.9698 64.8734 86.6442 59.991 86.5189H58.9895L57.7626 83.8638C56.4106 80.7327 55.2589 77.7268 54.1822 74.796C57.7376 74.9213 61.4683 75.2219 65.3241 75.6978L70.3317 76.3741C71.8507 80.0145 73.4281 83.7302 75.0639 87.5209L74.8887 87.4958ZM59.991 86.6692C64.8233 86.7945 69.831 87.1201 75.0138 87.6461C76.466 90.9525 78.0184 94.284 79.6459 97.6656C76.5662 97.6656 73.5366 97.4903 70.5571 97.4903C68.529 97.4903 66.526 97.4903 64.548 97.4903C62.5616 93.7497 60.7422 90.0842 59.0896 86.4939L59.991 86.6692ZM64.3476 97.6406C61.4683 97.6406 58.664 97.8159 55.9099 98.0163C53.5563 98.1666 51.3028 98.367 49.0745 98.6175C48.3734 97.34 47.6723 96.1126 47.0214 94.8101C45.686 92.2217 44.4842 89.7168 43.4159 87.2954C47.576 86.8834 51.7544 86.6827 55.9349 86.6942H58.9144C60.7171 90.176 62.5199 93.9334 64.5229 97.6907L64.3476 97.6406ZM55.9099 98.1415C58.6891 97.9662 61.5434 97.841 64.4228 97.7658C66.1754 101.072 68.0783 104.429 70.0813 107.785C65.0737 108.22 60.2497 108.771 55.6094 109.439C53.2808 105.806 51.1025 102.224 49.1496 98.6926C51.4697 98.5089 53.7816 98.3336 56.0851 98.1666L55.9099 98.1415ZM55.4591 109.514L53.0805 109.864C48.8742 110.532 44.843 111.309 40.9872 112.194C39.7854 110.39 38.6086 108.587 37.5319 106.783C36.4553 104.98 35.3286 103.026 34.3772 101.197C39.1926 100.05 44.0767 99.2135 48.9993 98.6926C51.0691 102.3 53.2809 105.915 55.6344 109.539L55.4591 109.514ZM53.1056 109.99L55.6094 109.639C57.7459 112.979 60.0161 116.319 62.4197 119.658C58.7642 120.41 55.1587 121.211 51.6784 122.163L48.7239 122.94C45.9948 119.433 43.4659 115.976 41.2125 112.52C45.0851 111.534 49.1079 110.699 53.2809 110.015L53.1056 109.99ZM48.6739 122.739C43.8916 124.017 39.3347 125.395 35.0782 126.923C33.1002 124.418 31.2724 122.088 29.5949 119.684C28.7937 118.556 28.0676 117.454 27.3665 116.352C31.8612 114.726 36.4519 113.379 41.1124 112.319C43.4159 115.809 45.9364 119.283 48.6739 122.739ZM48.6739 122.865C53.8484 129.461 59.6071 136.099 65.9501 142.778C91.4638 169.455 123.137 194.579 157.865 216.873H157.714C120.984 198.211 87.2574 176.444 59.941 152.447C50.9732 144.72 42.6574 136.267 35.0782 127.173C39.4348 125.57 43.9917 124.192 48.774 122.915L48.6739 122.865ZM59.8158 152.397C87.0822 176.344 120.758 198.111 157.464 216.722H157.189C119.031 201.894 83.7521 183.708 54.9834 162.642C41.513 152.748 29.7952 142.603 21.9834 132.584C26.213 130.503 30.5603 128.672 35.0031 127.098C42.5832 136.231 50.9168 144.71 59.9159 152.447L59.8158 152.397ZM157.639 216.873L158.365 217.223L157.439 216.873H157.639ZM158.29 217.349C157.739 217.223 157.189 217.048 156.663 216.898H157.088L158.29 217.349ZM162.947 216.697H163.974L160.969 217.449L162.947 216.697ZM311.898 132.458C314.812 129.36 317.443 126.007 319.76 122.439C322.278 123.77 324.653 125.356 326.846 127.173C327.75 127.935 328.588 128.773 329.35 129.678C328.186 133.191 326.443 136.485 324.192 139.422C320.359 136.731 316.275 134.416 311.998 132.508L311.898 132.458ZM311.748 132.458C307.521 130.571 303.2 128.899 298.803 127.449L297.201 126.948L299.705 124.443C302.033 121.938 304.187 119.433 306.14 116.928C310.823 118.3 315.36 120.129 319.685 122.389C317.385 125.977 314.762 129.348 311.848 132.458H311.748ZM306.315 116.778C308.896 113.594 311.208 110.201 313.225 106.633C316.809 107.863 320.185 109.628 323.241 111.868C323.516 112.069 323.766 112.319 324.017 112.52C323.943 112.943 323.843 113.361 323.716 113.772C322.781 116.758 321.451 119.606 319.76 122.238C315.458 120.004 310.957 118.176 306.315 116.778ZM306.165 116.778C302.81 115.776 299.254 114.849 295.523 114.073C293.854 113.705 292.102 113.355 290.265 113.021L291.718 111.292C293.996 108.462 296.099 105.681 298.027 103.001C303.14 103.728 308.17 104.944 313.05 106.633C311.029 110.183 308.717 113.559 306.14 116.728L306.165 116.778ZM298.102 102.876C300.567 99.4491 302.769 95.84 304.687 92.0798C309.001 92.7886 313.16 94.2377 316.981 96.3631C316.883 97.126 316.724 97.8799 316.505 98.6175C315.695 101.356 314.578 103.995 313.175 106.483C308.269 104.792 303.214 103.568 298.077 102.826L298.102 102.876ZM297.952 102.876C296.25 102.6 294.497 102.375 292.719 102.174C288.863 101.724 284.832 101.448 280.676 101.273L282.303 99.0433C284.331 96.1878 286.184 93.4324 287.887 90.7271H288.638C293.967 90.7225 299.286 91.1751 304.537 92.0798C302.603 95.7806 300.393 99.3308 297.927 102.7L297.952 102.876ZM288.638 90.6019H287.962C290.334 86.9192 292.451 83.0776 294.297 79.1044C299.016 79.0524 303.708 79.8151 308.168 81.3589C308.067 82.3331 307.882 83.2968 307.617 84.2395C306.862 86.9122 305.847 89.5045 304.587 91.9796C299.316 91.0264 293.97 90.5403 288.613 90.5268L288.638 90.6019ZM287.787 90.6019H287.386C281.313 90.6368 275.246 90.9795 269.209 91.6288C270.035 90.3263 270.861 89.124 271.712 87.7714C273.24 85.2665 274.642 82.9369 275.969 80.6074C278.473 80.2066 280.976 79.856 283.48 79.6305C286.935 79.3049 290.24 79.1044 293.345 79.1044H294.297C292.381 83.0484 290.198 86.8564 287.762 90.5017L287.787 90.6019ZM293.195 78.9541C290.065 78.9541 286.76 79.1546 283.305 79.4802C280.926 79.7307 278.473 80.0563 275.969 80.432C278.275 76.4183 280.373 72.2882 282.253 68.058C285.513 67.4956 288.811 67.194 292.118 67.1562C294.023 67.14 295.926 67.2994 297.802 67.6321C297.699 68.6885 297.515 69.7353 297.251 70.7632C296.473 73.5854 295.451 76.3345 294.196 78.9792L293.195 78.9541ZM275.794 80.4822C269.534 81.434 262.924 82.7866 256.039 84.5401C257.341 82.2105 258.542 79.8559 259.844 77.5765C260.646 76.0485 261.422 74.5706 262.173 73.0927C267.18 71.4646 272.188 70.0869 276.845 69.0599C278.648 68.6842 280.375 68.3585 282.078 68.083C280.192 72.2903 278.085 76.3956 275.768 80.382L275.794 80.4822ZM276.82 68.9346C272.188 69.9366 267.306 71.2892 262.248 72.9174C264.752 68.1581 266.78 63.6995 268.507 59.4913L269.284 59.1907C274.646 57.1383 280.282 55.8891 286.009 55.4834C285.902 56.4549 285.727 57.4175 285.483 58.364C284.633 61.6383 283.52 64.8384 282.153 67.9327C280.401 68.108 278.623 68.4337 276.795 68.8345L276.82 68.9346ZM262.073 72.9926C255.488 75.1217 248.552 77.7518 241.316 80.7827C243.252 76.8083 245.08 72.9174 246.8 69.11C253.758 65.4561 260.952 62.2679 268.332 59.5664C266.554 63.6744 264.451 68.1331 262.048 72.8924L262.073 72.9926ZM246.9 68.9096C246.926 68.7958 246.968 68.6862 247.025 68.584C249.328 63.5742 251.356 58.7398 253.109 54.2561C255.613 52.7532 258.117 51.3504 260.621 50.123C264.494 48.0398 268.572 46.361 272.789 45.1133C272.789 45.7646 272.564 46.4158 272.413 47.0921C271.367 51.2568 270.002 55.3351 268.332 59.2909C260.975 61.9799 253.806 65.1598 246.875 68.8094L246.9 68.9096ZM246.9 68.5338L246.674 69.0098C240.899 71.9822 234.873 75.3221 228.597 79.0293L225.417 80.9581C226.986 77.1006 228.505 73.3349 229.974 69.6611C237.335 64.1312 244.992 59.0053 252.909 54.3061C251.231 58.6897 249.128 63.3989 246.875 68.4337L246.9 68.5338ZM230.049 69.4607C231.201 66.5551 232.303 63.6995 233.354 60.894C234.255 58.3891 235.107 56.1097 235.858 53.8302C240.715 49.5755 245.806 45.595 251.106 41.907C253.422 40.2891 255.821 38.7925 258.292 37.4233C256.908 43.1166 255.109 48.7008 252.909 54.1308C245.018 58.8015 237.38 63.8852 230.024 69.3605L230.049 69.4607ZM233.204 60.8439C232.127 63.7245 231.001 66.6552 229.849 69.611C227.871 71.0638 225.893 72.5417 223.865 74.0947C218.857 77.877 213.85 81.9099 208.842 86.0931L212.072 76.3491C214.3 74.0947 216.529 71.8403 218.757 69.6861C224.666 63.9082 230.325 58.6814 235.733 54.0056C234.906 56.1347 234.08 58.3891 233.179 60.7437L233.204 60.8439ZM218.682 69.4857C216.529 71.5898 214.35 73.744 212.172 75.9483C213.875 70.7382 215.502 65.6533 217.029 60.7688C224.385 51.5157 232.348 42.7626 240.866 34.5677C241.341 34.1419 241.817 33.691 242.293 33.2903C240.765 39.2769 238.562 46.0651 235.833 53.6299C230.35 58.339 224.616 63.6493 218.682 69.4857ZM211.972 76.1738C205.529 82.6531 198.994 89.5415 192.367 96.839C192.893 94.785 193.393 92.7561 193.919 90.7271C200.429 81.8264 206.822 73.4768 213.098 65.6783L216.779 61.1194C215.227 65.9538 213.674 70.9887 211.922 76.1738H211.972ZM212.998 65.503C206.789 73.2681 200.479 81.5843 193.994 90.3764C194.946 86.6692 195.847 83.0371 196.749 79.4552C200.237 73.4935 203.667 67.7406 207.039 62.1965C213.174 52.177 218.832 43.435 224.115 36.0206C222.638 41.6315 220.835 47.7684 218.832 54.4564C218.206 56.5104 217.555 58.5895 216.904 60.6936L212.998 65.503ZM193.644 90.677C188.486 97.6907 183.261 105.013 177.97 112.645C184.205 101.147 190.339 90.1009 196.348 79.906C195.547 83.4379 194.645 87.0199 193.644 90.677ZM177.92 112.72C185.782 93.4574 193.368 75.5726 200.604 59.4913L202.407 55.5586C200.588 63.1734 198.635 71.1556 196.548 79.5052C190.489 89.9589 184.28 101.031 177.92 112.72ZM177.119 112.72C174.465 103.352 171.777 94.3174 169.057 85.6171C169.374 81.7429 169.699 77.9355 170.033 74.1949C172.487 86.1181 174.84 98.9932 177.119 112.495V112.72ZM170.083 73.694C170.868 64.9436 171.652 56.594 172.437 48.6452C172.637 50.6992 172.837 52.8032 173.038 54.9574C174.69 72.4916 176.067 91.8794 177.244 112.57C174.957 98.8262 172.57 85.7925 170.083 73.4685V73.694ZM168.931 85.2665C165.802 75.247 162.622 65.7785 159.392 56.786C158.566 54.4565 157.714 52.202 156.888 49.9978C156.888 48.094 157.013 46.2154 157.088 44.3869C157.355 37.106 157.714 30.4764 158.165 24.4981C160.869 33.3904 163.473 43.8107 166.102 55.5837C167.404 61.42 168.606 67.4819 169.933 73.694C169.607 77.2509 169.282 81.1084 168.931 85.1663V85.2665ZM159.267 56.8361C162.522 65.9205 165.735 75.5225 168.906 85.6422C168.731 87.7964 168.531 89.9757 168.355 92.1549C164.45 83.1373 160.502 74.5289 156.512 66.3296C156.512 60.8439 156.713 55.5335 156.888 50.3735C157.664 52.2521 158.591 54.4064 159.267 56.6107V56.8361ZM152.607 58.7648C153.858 61.2697 155.11 63.7746 156.362 66.2795C156.362 69.6861 156.362 73.1679 156.237 76.6998C152.932 71.3393 149.652 66.1542 146.347 61.1946C144.77 58.865 143.242 56.6107 141.715 54.4064C141.715 51.4005 141.49 48.4448 141.415 45.5641C141.339 42.6835 141.415 40.2789 141.264 37.7489C144.995 43.9109 148.751 50.8995 152.607 58.5394V58.7648ZM141.565 54.5316C141.74 58.5143 141.94 62.5723 142.191 66.7554L140.263 64.451C135.405 58.7398 130.648 53.4629 125.991 48.6201C126.003 48.5623 126.003 48.5026 125.991 48.4447C125.49 42.8589 125.14 37.6237 124.94 32.7892C130.876 39.6478 136.426 46.8312 141.565 54.3061V54.5316ZM125.841 48.4698C120.464 42.8101 114.717 37.5131 108.64 32.6139C108.54 30.6267 108.49 28.723 108.49 26.9028C108.49 24.3979 108.49 22.1185 108.79 19.9643C108.79 19.2379 108.965 18.5616 109.091 17.8853C112.759 20.4372 116.157 23.358 119.231 26.6022C121.059 28.4558 122.912 30.4847 124.764 32.6139C124.965 37.3732 125.324 42.5834 125.841 48.2444V48.4698ZM125.841 48.6952C126.217 52.8283 126.667 57.1367 127.193 61.5202C121.359 56.3351 115.676 51.5007 110.142 47.5179C109.416 42.2577 108.89 37.3482 108.64 32.8143C114.713 37.6557 120.467 42.8851 125.866 48.4698L125.841 48.6952ZM109.992 47.4177C105.861 44.3367 101.804 41.5563 97.8234 39.1517C96.1459 38.1247 94.4934 37.1979 92.8158 36.3462C92.8158 34.5176 92.6155 32.7141 92.6155 31.0108C92.6155 29.3075 92.6155 27.8045 92.7908 26.3016C92.8925 25.3163 93.0514 24.3377 93.2665 23.3709C98.6285 25.6219 103.624 28.6613 108.089 32.3885L108.44 32.689C108.765 36.9974 109.291 41.907 110.017 47.1923L109.992 47.4177ZM97.7734 39.2769C101.763 41.715 105.844 44.487 110.017 47.5931C110.234 49.263 110.484 50.9914 110.768 52.7782C111.169 55.2831 111.594 57.788 112.07 60.4431C106.111 56.5606 100.352 53.1288 94.7438 50.2232C93.876 45.6849 93.2574 41.1025 92.8909 36.4965C94.4934 37.1478 96.1209 38.0495 97.7984 39.0514L97.7734 39.2769ZM94.5936 50.148C92.4653 49.0208 90.3371 47.9688 88.2589 47.0169C84.8798 45.4501 81.41 44.0867 77.8681 42.9341C77.6929 41.0554 77.5927 39.2518 77.5927 37.5485C77.5927 36.3963 77.5927 35.2941 77.7179 34.217C77.7913 33.1523 77.9589 32.0961 78.2187 31.0609C83.3177 32.0486 88.2224 33.8591 92.7407 36.4214C93.1236 40.9523 93.7505 45.4592 94.6186 49.9226L94.5936 50.148ZM88.2089 47.1422C90.312 48.1191 92.4653 49.1962 94.6186 50.3234C95.1193 52.9786 95.6702 55.734 96.3212 58.5896C96.6216 60.0173 96.9722 61.4701 97.3227 62.9229C91.7144 60.3104 85.9728 57.9944 80.1216 55.9845C79.0892 51.7395 78.3447 47.4297 77.8932 43.0843C81.4106 44.1628 84.8631 45.4424 88.2339 46.9168L88.2089 47.1422ZM79.9714 55.9343L79.6208 55.8091C74.4874 54.0468 69.2091 52.7393 63.8469 51.9015C63.5947 49.9408 63.4609 47.9667 63.4463 45.9899C63.4463 45.1633 63.4463 44.3618 63.4463 43.4851C63.5191 42.5226 63.6698 41.5676 63.8969 40.6295H64.8735C69.235 40.762 73.5502 41.5646 77.6678 43.0092C78.1612 47.2895 78.9391 51.5321 79.9964 55.7089L79.9714 55.9343ZM79.5707 55.9343L79.9964 56.0847C80.7308 59.1907 81.5654 62.422 82.5002 65.7785C82.7506 66.6302 83.026 67.5069 83.3014 68.2834C79.4122 67.1479 75.6314 66.1709 71.9592 65.3527C70.1064 64.9268 68.2786 64.5511 66.5009 64.2505C65.3047 60.2144 64.4092 56.0952 63.8218 51.9266C69.1814 52.7294 74.4599 54.0034 79.5958 55.7339L79.5707 55.9343ZM66.4007 64.3007C61.6203 63.3926 56.7693 62.9064 51.9038 62.8478H51.0274C50.6295 60.5981 50.4201 58.3191 50.4015 56.0345C50.4015 55.4334 50.4015 54.8573 50.4015 54.2812C50.4284 53.5315 50.5206 52.7855 50.6769 52.0518C52.7281 51.63 54.8172 51.4201 56.9114 51.4256C59.1741 51.4474 61.4327 51.6231 63.6716 51.9516C64.2894 56.0634 65.21 60.124 66.4258 64.1002L66.4007 64.3007ZM51.9038 62.9981C56.7858 63.0577 61.6533 63.5439 66.4508 64.451C67.3522 67.6321 68.4288 70.9136 69.6807 74.3202C69.9311 75.0466 70.2065 75.7479 70.4819 76.4493L65.4743 75.773C61.6018 75.2887 57.8711 74.9882 54.2824 74.8713C52.8766 71.0191 51.7962 67.0559 51.0525 63.0232L51.9038 62.9981ZM50.9023 74.9464H54.1822C55.2338 77.9022 56.4356 80.933 57.7877 84.0641C58.1633 84.9158 58.5889 85.7925 58.9895 86.569H56.0601C51.8801 86.5513 47.7018 86.7436 43.5411 87.1452C41.8982 83.4397 40.5991 79.5911 39.6602 75.6478C43.3849 75.0391 47.1532 74.7375 50.9273 74.746L50.9023 74.9464ZM43.3909 87.4708C44.4675 89.9757 45.6943 92.4805 47.0214 95.1106C47.6723 96.3631 48.3484 97.6156 49.0494 98.893C44.1288 99.4286 39.2456 100.265 34.4272 101.398C32.5282 97.8393 30.9528 94.1171 29.7201 90.2763C34.1716 88.807 38.7602 87.7915 43.4159 87.2453L43.3909 87.4708ZM34.302 101.348C29.9226 102.339 25.6533 103.765 21.5577 105.606C20.2152 102.343 19.4118 98.8825 19.1791 95.3612C20.8108 94.0854 22.5833 93.0012 24.4621 92.1298C26.1345 91.3887 27.8483 90.7448 29.5949 90.2011C30.8454 93.9787 32.4377 97.6342 34.3521 101.122L34.302 101.348ZM34.302 101.473C35.2785 103.327 36.3552 105.205 37.4819 107.109C38.6086 109.013 39.7103 110.691 40.9121 112.495C36.2583 113.539 31.6755 114.877 27.1913 116.502C24.9797 113.097 23.0935 109.491 21.5577 105.731C25.6769 103.807 29.9803 102.305 34.4022 101.248L34.302 101.473ZM27.041 116.502C22.9759 117.96 19.0603 119.805 15.3483 122.013L15.0979 122.163C13.5025 119.018 12.4286 115.634 11.9181 112.144C14.0342 110.055 16.4472 108.291 19.0789 106.909C19.8301 106.508 20.6313 106.157 21.4325 105.781C23.0086 109.464 24.9195 112.994 27.1412 116.327L27.041 116.502ZM15.4234 122.113C19.1391 119.919 23.0541 118.083 27.1162 116.628C27.8423 117.73 28.5683 118.857 29.3696 119.984C31.0471 122.489 32.8749 124.793 34.8279 127.198C30.383 128.746 26.0425 130.578 21.8331 132.684C19.2607 129.453 17.021 125.97 15.148 122.289L15.4234 122.113ZM21.7079 132.734C18.83 134.172 16.0527 135.804 13.3953 137.618C12.544 138.195 11.7178 138.796 10.8915 139.422C8.92275 136.419 7.46735 133.109 6.58497 129.628C8.96306 126.753 11.8069 124.297 14.9977 122.364C16.9199 125.982 19.2016 129.398 21.8081 132.559L21.7079 132.734ZM13.4704 137.744C16.1571 135.891 18.968 134.226 21.8832 132.759C29.7201 142.778 41.4379 152.998 54.9083 162.818C83.6269 183.859 118.805 201.994 156.838 216.798H156.613C117.453 205.926 81.048 191.473 51.1526 173.438C33.3756 162.717 18.478 150.894 11.0918 139.272C11.893 138.746 12.7193 138.119 13.5706 137.543L13.4704 137.744ZM51.0274 173.864C81.3985 192.175 118.455 206.803 158.315 217.749C117.704 210.861 79.7711 200.09 48.4736 184.936C26.2398 174.14 8.16239 160.864 3.40517 147.638C5.47451 144.597 8.00931 141.9 10.9166 139.647C18.3779 151.095 33.4007 162.943 51.0775 173.664L51.0274 173.864ZM161.195 217.8L164.8 216.898L168.556 216.722L161.195 217.8ZM335.935 159.586C335.846 161.112 335.525 162.616 334.983 164.045C332.204 171.284 324.793 177.897 315.203 183.608C302.337 190.827 288.629 196.43 274.391 200.29C240.7 209.606 206.04 214.97 171.11 216.272C206.867 211.059 241.902 201.729 275.518 188.467C289.449 183.053 302.693 176.016 314.978 167.502C323.341 161.415 329.851 154.827 332.705 148.014C334.938 151.374 336.051 155.354 335.885 159.386L335.935 159.586ZM333.431 146.135C333.251 146.733 333.034 147.318 332.78 147.888C331.939 146.618 330.983 145.428 329.926 144.332C328.235 142.641 326.41 141.091 324.467 139.697C326.729 136.782 328.481 133.504 329.65 130.004C332.441 133.251 334.017 137.369 334.107 141.651C334.041 143.112 333.763 144.555 333.281 145.935L333.431 146.135ZM330.076 125.244C330.068 126.721 329.849 128.189 329.425 129.603C328.672 128.69 327.834 127.851 326.921 127.098C324.743 125.253 322.367 123.657 319.835 122.339C321.536 119.699 322.875 116.843 323.816 113.847C323.937 113.46 324.037 113.067 324.117 112.67C325.954 114.215 327.437 116.138 328.465 118.308C329.493 120.478 330.043 122.843 330.076 125.244ZM318.033 97.0394C320.027 98.4122 321.655 100.254 322.772 102.402C323.89 104.551 324.463 106.941 324.442 109.363C324.433 110.399 324.324 111.43 324.117 112.444L323.391 111.818C320.327 109.585 316.953 107.813 313.376 106.558C314.791 104.065 315.917 101.417 316.731 98.6676C316.928 97.9417 317.086 97.2059 317.206 96.4633L318.033 97.0394ZM311.172 82.7616C313.071 83.9599 314.621 85.6369 315.667 87.6242C316.713 89.6116 317.218 91.8393 317.131 94.0836C317.13 94.8043 317.08 95.5241 316.981 96.2379C313.168 94.1212 309.017 92.6805 304.712 91.9796C305.955 89.497 306.969 86.9063 307.742 84.2395C307.987 83.3019 308.163 82.3474 308.268 81.3839C309.267 81.7347 310.238 82.1618 311.172 82.6614V82.7616ZM302.81 69.2102C304.585 70.2541 306.035 71.7732 306.995 73.5964C307.955 75.4197 308.387 77.4747 308.243 79.5303C308.28 80.0807 308.28 80.6331 308.243 81.1835C303.809 79.6405 299.14 78.886 294.447 78.9541C295.679 76.3142 296.684 73.574 297.451 70.7632C297.738 69.7306 297.93 68.6743 298.027 67.607C299.688 67.8761 301.3 68.3911 302.81 69.1351V69.2102ZM286.76 55.4083C288.918 55.3509 291.065 55.7345 293.07 56.5355C296.199 57.8882 297.877 61.5452 297.877 65.8787C297.877 66.3797 297.877 66.9057 297.877 67.4568C295.993 67.1241 294.082 66.9648 292.168 66.9808C288.879 67.0301 285.597 67.3316 282.353 67.8826C283.719 64.8139 284.833 61.6389 285.684 58.3891C285.929 57.4177 286.105 56.4299 286.209 55.4334L286.76 55.4083ZM278.473 44.3368C279.672 44.3162 280.867 44.5026 282.003 44.8879C284.707 45.8397 286.134 49.096 286.134 53.204C286.128 53.907 286.087 54.6093 286.009 55.3081C280.256 55.7199 274.595 56.9775 269.209 59.0404L268.558 59.2909C270.212 55.3658 271.568 51.3214 272.614 47.1923C272.764 46.516 272.889 45.8146 272.989 45.1634C274.771 44.6295 276.614 44.3265 278.473 44.2616V44.3368ZM267.957 34.1419C268.573 34.138 269.187 34.2138 269.784 34.3673C272.013 34.9685 273.165 37.824 273.165 41.6064C273.159 42.7566 273.058 43.9044 272.864 45.0381C268.616 46.2898 264.506 47.9683 260.595 50.0479C258.092 51.2502 255.588 52.5527 253.084 54.0807C255.277 48.6613 257.059 43.0848 258.417 37.3982C261.29 35.5517 264.559 34.4102 267.957 34.0668V34.1419ZM255.713 25.0492C255.98 25.0244 256.248 25.0244 256.514 25.0492C258.242 25.3748 259.018 27.7294 259.018 31.111C258.993 33.1532 258.741 35.1863 258.267 37.1728C255.75 38.5601 253.309 40.082 250.956 41.7317C245.737 45.3693 240.722 49.2912 235.933 53.4796C238.637 45.9649 240.941 39.1266 242.343 33.14C247.751 28.3055 252.358 25.0492 255.713 25.0492ZM229.774 28.4809C234.781 22.0183 239.088 17.1838 242.142 17.1838H242.343C243.545 17.1838 244.146 19.0625 244.12 21.868C244.082 24.2278 243.805 26.5775 243.294 28.8816C243.019 30.2343 242.668 31.662 242.293 33.0898L240.715 34.5427C232.29 42.6619 224.403 51.3222 217.104 60.4682C217.705 58.4894 218.306 56.5105 218.907 54.5817C220.977 47.7351 222.78 41.4645 224.315 35.7701C226.193 33.0898 227.996 30.635 229.774 28.3806V28.4809ZM218.131 23.4711C222.037 16.3823 224.916 10.9467 227.42 10.7713C228.046 10.7713 228.397 11.8735 228.397 13.8023C228.308 16.5833 227.965 19.3503 227.37 22.0684C226.569 26.1764 225.467 30.7603 224.14 35.8201C218.782 43.3348 213.048 52.177 206.839 62.2967C203.509 67.6822 200.154 73.3182 196.824 79.1546C198.927 70.7382 200.905 62.6474 202.733 54.9574C208.366 42.3329 213.474 31.7622 218.131 23.2957V23.4711ZM193.969 57.4123C198.526 42.383 202.532 29.6331 206.038 19.5384C208.541 12.0238 209.994 6.63834 211.922 5.73658C212.072 5.73658 212.197 6.11227 212.197 6.93888C211.988 10.2309 211.544 13.5039 210.87 16.733C209.243 25.5501 206.789 36.6468 203.709 49.7974C203.309 51.4506 202.908 53.179 202.482 54.8072L200.404 59.4161C193.168 75.4975 185.582 93.3572 177.87 112.62C183.478 92.6809 188.887 74.0196 193.969 57.2369V57.4123ZM180.073 96.7388L188.636 46.2906C189.938 38.4754 191.14 31.4115 192.192 25.0992C190.739 33.9164 189.07 44.1196 187.184 55.7089C184.305 72.9925 181.15 92.0297 177.745 112.495C177.745 112.119 177.745 111.768 177.745 111.417C178.462 106.441 179.239 101.49 180.073 96.5634V96.7388ZM172.837 44.6123C174.214 31.1861 175.516 19.9142 176.893 11.0469C177.795 5.1354 178.871 0.225817 179.547 0.300963C180.574 1.25282 180.749 4.05829 180.749 8.14125C180.749 9.76942 180.749 11.598 180.749 13.6019V18.9122C180.749 28.9317 180.449 41.0303 179.973 55.0326C179.347 72.2662 178.471 91.203 177.469 111.518V112.044C176.293 91.4786 174.965 72.3163 173.288 54.9074C173.063 52.4025 172.837 50.1731 172.612 47.8937C172.612 46.6663 172.737 45.5391 172.837 44.4369V44.6123ZM159.567 10.7213C160.393 4.73461 161.846 -0.0497077 163.123 0.000389866H163.373C165.676 1.02739 166.703 7.06415 168.105 15.0297C169.708 24.0973 171.085 35.0687 172.362 47.8686C171.56 55.8592 170.759 64.2756 169.983 73.0677C168.748 67.0059 167.496 61.1612 166.227 55.5336C163.573 43.5853 160.919 32.9896 158.19 24.0973C158.591 18.9874 159.016 14.5036 159.567 10.5459V10.7213ZM142.316 12.0989C143.092 6.06216 144.82 1.27788 146.823 1.32797C146.93 1.30417 147.041 1.30417 147.148 1.32797C150.153 2.10449 152.657 8.16633 155.461 16.0817C156.337 18.5866 157.189 21.2418 157.965 24.0222C157.514 30.109 157.164 36.8471 156.888 44.2866C156.888 46.015 156.738 47.7684 156.688 49.5469C152.837 38.8355 148.278 28.3921 143.042 18.286L141.84 16.0567C142.016 14.5537 142.166 13.2011 142.316 11.9236V12.0989ZM130.849 4.23364H131.174C134.529 4.75967 138.034 9.51891 141.765 16.1067C141.289 21.2668 141.114 27.1282 141.114 33.6409C141.114 34.8182 141.114 36.1458 141.114 37.2479C138.003 31.9163 134.619 26.7493 130.974 21.7678C129.046 19.2629 127.168 16.8833 125.34 14.9045C126.041 8.7174 128.295 4.03323 130.849 4.05828V4.23364ZM115.375 8.69232H115.6C118.53 8.89271 121.785 11.1972 125.24 14.9796C125.228 15.0374 125.228 15.0971 125.24 15.1549C124.831 18.8392 124.638 22.5446 124.664 26.2515C124.664 28.2054 124.664 30.2343 124.789 32.3635C122.962 30.2594 121.159 28.2805 119.356 26.4519C116.264 23.1834 112.84 20.2452 109.141 17.6848C110.092 12.2993 112.496 8.51696 115.375 8.51696V8.69232ZM100.628 14.6539C103.629 14.8824 106.503 15.9596 108.915 17.76C108.79 18.4363 108.69 19.1627 108.615 19.8891C108.387 22.2032 108.279 24.5275 108.289 26.8527C108.289 28.6312 108.289 30.5098 108.44 32.4386L108.189 32.2382C103.708 28.4955 98.6956 25.4396 93.3166 23.1705C94.5434 18.0606 97.2476 14.5036 100.628 14.4786V14.6539ZM86.4061 22.1686H87.2324C89.2817 22.2187 91.3067 22.6255 93.2165 23.3709C92.9892 24.3523 92.8302 25.3483 92.7407 26.3517C92.7407 27.8546 92.5404 29.4327 92.5404 31.0609C92.5404 32.689 92.5404 34.4926 92.7407 36.3211C88.2443 33.7554 83.3541 31.9525 78.2688 30.9857C79.5207 25.8006 82.5503 22.2187 86.4061 21.9181V22.1686ZM73.0609 30.9857C73.7742 30.885 74.4937 30.8348 75.2141 30.8354C76.186 30.8512 77.1559 30.9264 78.1185 31.0609C77.8623 32.0978 77.6865 33.153 77.5927 34.217C77.5927 35.2941 77.4676 36.4213 77.4676 37.5736C77.4676 39.2769 77.5928 41.0554 77.743 42.909C73.6309 41.476 69.3257 40.6736 64.9736 40.5293H64.0221C65.274 35.219 68.6542 31.3364 73.0609 30.7352V30.9857ZM60.7672 41.0052C61.7832 40.8089 62.8128 40.6917 63.8469 40.6546C63.616 41.591 63.4735 42.547 63.4212 43.5101C63.4212 44.3117 63.4212 45.1133 63.4212 46.015C63.4331 47.9844 63.5753 49.9509 63.8469 51.9015C61.6093 51.5616 59.3499 51.3858 57.0866 51.3755C55.0018 51.3635 52.9211 51.5649 50.8772 51.9766C51.2311 49.3455 52.361 46.8796 54.1227 44.8941C55.8844 42.9085 58.1977 41.4936 60.7672 40.8299V41.0052ZM49.6253 52.2772L50.6018 52.0768C50.4715 52.7979 50.3796 53.5253 50.3264 54.2561C50.3264 54.8573 50.3264 55.4334 50.3264 56.0345C50.3513 58.243 50.5523 60.4459 50.9273 62.6224C47.1604 62.6211 43.4141 63.1782 39.8104 64.2756C39.4605 64.3786 39.1176 64.5041 38.7838 64.6513C39.1607 61.726 40.3896 58.9763 42.3174 56.7448C44.2452 54.5133 46.7867 52.8986 49.6253 52.1018V52.2772ZM38.5836 65.1022C38.5836 65.503 38.5836 65.8787 38.5836 66.2795C38.5836 66.6803 38.5836 67.1562 38.5836 67.607C38.6229 70.3256 38.9672 73.0311 39.6101 75.6728C36.8337 76.1225 34.1081 76.8441 31.4727 77.827C30.3722 78.2669 29.3089 78.7946 28.2929 79.4051C28.4469 76.2606 29.4979 73.2259 31.3216 70.6602C33.1452 68.0944 35.6652 66.1049 38.5836 64.9269V65.1022ZM19.2041 94.3341V93.6328C19.4116 90.7578 20.3244 87.9782 21.8616 85.5402C23.3989 83.1023 25.5133 81.0811 28.0175 79.6555V80.1565C28.0701 83.4145 28.6016 86.647 29.5949 89.7502C27.8377 90.2868 26.1152 90.931 24.4371 91.679C22.5816 92.5299 20.8334 93.5977 19.2292 94.8601C19.2041 94.7099 19.2041 94.4343 19.2041 94.1588V94.3341ZM11.843 109.363V108.787C12.0251 106.189 12.7686 103.66 14.0222 101.377C15.2758 99.0936 17.0096 97.1095 19.104 95.5615C19.3703 99.0667 20.2164 102.503 21.6078 105.731C20.8065 106.107 20.0054 106.458 19.2542 106.859C16.6413 108.227 14.2451 109.974 12.1434 112.044C11.9815 111.057 11.8812 110.062 11.843 109.063V109.363ZM6.15933 124.969C6.15933 124.819 6.15933 124.668 6.15933 124.518C6.45747 119.884 8.49688 115.535 11.868 112.344C12.3811 115.834 13.4549 119.217 15.0478 122.364C11.8844 124.294 9.05924 126.731 6.68514 129.578C6.31626 127.968 6.13974 126.32 6.15933 124.668V124.969ZM2.2534 141.125V140.775C2.48572 136.761 4.0246 132.934 6.63505 129.878C7.51049 133.342 8.95754 136.635 10.9166 139.622C8.00214 141.857 5.46596 144.547 3.40517 147.588C2.6134 145.422 2.22308 143.13 2.2534 140.825V141.125ZM0.150222 157.407C0.320839 153.995 1.43938 150.699 3.38011 147.888C8.1874 161.139 26.2648 174.39 48.4485 185.161C79.746 200.341 117.679 211.087 158.315 218C117.378 215.195 78.9949 208.381 47.0965 196.458C20.9067 186.639 0.125198 172.336 0.125198 157.683L0.150222 157.407Z" fill="url(#paint0_linear_1_3202)"/>
<defs>
<linearGradient id="paint0_linear_1_3202" x1="2.12975e-06" y1="218" x2="338.786" y2="188.436" gradientUnits="userSpaceOnUse">
<stop stop-color="#FFDE00"/>
<stop offset="1" stop-color="#43F272"/>
</linearGradient>
</defs>
</svg>
